<?xml version="1.0" encoding="UTF-8" standalone="no"?>
<!DOCTYPE svg PUBLIC "-//W3C//DTD SVG 1.1//EN"
 "http://www.w3.org/Graphics/SVG/1.1/DTD/svg11.dtd">
<!-- Generated by graphviz version 2.47.0 (20210316.0004)
 -->
<!-- Title: dependencies Pages: 1 -->
<svg width="658pt" height="284pt"
 viewBox="0.00 0.00 658.00 284.00" xmlns="http://www.w3.org/2000/svg" xmlns:xlink="http://www.w3.org/1999/xlink">
<g id="graph0" class="graph" transform="scale(1 1) rotate(0) translate(4 280)">
<title>dependencies</title>
<polygon fill="white" stroke="transparent" points="-4,4 -4,-280 654,-280 654,4 -4,4"/>
<text text-anchor="start" x="304.01" y="-42.4" font-family="sans-serif" font-weight="bold" font-size="14.00">Legend</text>
<polygon fill="#ffffb3" stroke="transparent" points="91,-10 91,-30 111,-30 111,-10 91,-10"/>
<text text-anchor="start" x="114.63" y="-15.4" font-family="sans-serif" font-size="14.00"> &#160;Declarations</text>
<polygon fill="#8dd3c7" stroke="transparent" points="204,-10 204,-30 224,-30 224,-10 204,-10"/>
<text text-anchor="start" x="227.73" y="-15.4" font-family="sans-serif" font-size="14.00"> &#160;Module</text>
<polygon fill="#80b1d3" stroke="transparent" points="290,-10 290,-30 310,-30 310,-10 290,-10"/>
<text text-anchor="start" x="313.78" y="-15.4" font-family="sans-serif" font-size="14.00"> &#160;Bootstrap</text>
<polygon fill="#fdb462" stroke="transparent" points="387,-10 387,-30 407,-30 407,-10 387,-10"/>
<text text-anchor="start" x="410.67" y="-15.4" font-family="sans-serif" font-size="14.00"> &#160;Providers</text>
<polygon fill="#fb8072" stroke="transparent" points="483,-10 483,-30 503,-30 503,-10 483,-10"/>
<text text-anchor="start" x="506.73" y="-15.4" font-family="sans-serif" font-size="14.00"> &#160;Exports</text>
<g id="clust1" class="cluster">
<title>cluster_NgplCommonModule</title>
<polygon fill="none" stroke="black" stroke-dasharray="1,5" points="8,-70 8,-268 642,-268 642,-70 8,-70"/>
</g>
<g id="clust3" class="cluster">
<title>cluster_NgplCommonModule_imports</title>
<polygon fill="none" stroke="black" points="22,-78 22,-130 630,-130 630,-78 22,-78"/>
</g>
<g id="clust4" class="cluster">
<title>cluster_NgplCommonModule_exports</title>
<polygon fill="none" stroke="black" points="16,-208 16,-260 634,-260 634,-208 16,-208"/>
</g>
<!-- NgplCommonDirectivesModule -->
<g id="node1" class="node">
<title>NgplCommonDirectivesModule</title>
<polygon fill="#8dd3c7" stroke="black" points="621.69,-122 618.69,-126 597.69,-126 594.69,-122 424.31,-122 424.31,-86 621.69,-86 621.69,-122"/>
<text text-anchor="middle" x="523" y="-99.8" font-family="Times,serif" font-size="14.00">NgplCommonDirectivesModule</text>
</g>
<!-- NgplCommonModule -->
<g id="node4" class="node">
<title>NgplCommonModule</title>
<polygon fill="#8dd3c7" stroke="black" points="390.67,-187 387.67,-191 366.67,-191 363.67,-187 251.33,-187 251.33,-151 390.67,-151 390.67,-187"/>
<text text-anchor="middle" x="321" y="-164.8" font-family="Times,serif" font-size="14.00">NgplCommonModule</text>
</g>
<!-- NgplCommonDirectivesModule&#45;&gt;NgplCommonModule -->
<g id="edge1" class="edge">
<title>NgplCommonDirectivesModule&#45;&gt;NgplCommonModule</title>
<path fill="none" stroke="black" d="M556.28,-122.02C556.28,-139.37 556.28,-163 556.28,-163 556.28,-163 400.96,-163 400.96,-163"/>
<polygon fill="black" stroke="black" points="400.96,-159.5 390.96,-163 400.96,-166.5 400.96,-159.5"/>
</g>
<!-- NgplCommonFilterModule -->
<g id="node2" class="node">
<title>NgplCommonFilterModule</title>
<polygon fill="#8dd3c7" stroke="black" points="405.99,-122 402.99,-126 381.99,-126 378.99,-122 236.01,-122 236.01,-86 405.99,-86 405.99,-122"/>
<text text-anchor="middle" x="321" y="-99.8" font-family="Times,serif" font-size="14.00">NgplCommonFilterModule</text>
</g>
<!-- NgplCommonFilterModule&#45;&gt;NgplCommonModule -->
<g id="edge2" class="edge">
<title>NgplCommonFilterModule&#45;&gt;NgplCommonModule</title>
<path fill="none" stroke="black" d="M321,-122.11C321,-122.11 321,-140.99 321,-140.99"/>
<polygon fill="black" stroke="black" points="317.5,-140.99 321,-150.99 324.5,-140.99 317.5,-140.99"/>
</g>
<!-- NgplCommonSkeletonModule -->
<g id="node3" class="node">
<title>NgplCommonSkeletonModule</title>
<polygon fill="#8dd3c7" stroke="black" points="218.16,-122 215.16,-126 194.16,-126 191.16,-122 29.84,-122 29.84,-86 218.16,-86 218.16,-122"/>
<text text-anchor="middle" x="124" y="-99.8" font-family="Times,serif" font-size="14.00">NgplCommonSkeletonModule</text>
</g>
<!-- NgplCommonSkeletonModule&#45;&gt;NgplCommonModule -->
<g id="edge3" class="edge">
<title>NgplCommonSkeletonModule&#45;&gt;NgplCommonModule</title>
<path fill="none" stroke="black" d="M153.94,-122.02C153.94,-139.37 153.94,-163 153.94,-163 153.94,-163 241.12,-163 241.12,-163"/>
<polygon fill="black" stroke="black" points="241.12,-166.5 251.12,-163 241.12,-159.5 241.12,-166.5"/>
</g>
<!-- NgplCommonDirectivesModule  -->
<g id="node5" class="node">
<title>NgplCommonDirectivesModule </title>
<polygon fill="#fb8072" stroke="black" points="626.19,-252 425.81,-252 425.81,-216 626.19,-216 626.19,-252"/>
<text text-anchor="middle" x="526" y="-229.8" font-family="Times,serif" font-size="14.00">NgplCommonDirectivesModule </text>
</g>
<!-- NgplCommonModule&#45;&gt;NgplCommonDirectivesModule  -->
<g id="edge4" class="edge">
<title>NgplCommonModule&#45;&gt;NgplCommonDirectivesModule </title>
<path fill="none" stroke="black" stroke-dasharray="5,2" d="M391.11,-175C437.93,-175 490.97,-175 490.97,-175 490.97,-175 490.97,-205.98 490.97,-205.98"/>
<polygon fill="black" stroke="black" points="487.47,-205.98 490.97,-215.98 494.47,-205.98 487.47,-205.98"/>
</g>
<!-- NgplCommonFilterModule  -->
<g id="node6" class="node">
<title>NgplCommonFilterModule </title>
<polygon fill="#fb8072" stroke="black" points="408,-252 234,-252 234,-216 408,-216 408,-252"/>
<text text-anchor="middle" x="321" y="-229.8" font-family="Times,serif" font-size="14.00">NgplCommonFilterModule </text>
</g>
<!-- NgplCommonModule&#45;&gt;NgplCommonFilterModule  -->
<g id="edge5" class="edge">
<title>NgplCommonModule&#45;&gt;NgplCommonFilterModule </title>
<path fill="none" stroke="black" stroke-dasharray="5,2" d="M321,-187.11C321,-187.11 321,-205.99 321,-205.99"/>
<polygon fill="black" stroke="black" points="317.5,-205.99 321,-215.99 324.5,-205.99 317.5,-205.99"/>
</g>
<!-- NgplCommonSkeletonModule  -->
<g id="node7" class="node">
<title>NgplCommonSkeletonModule </title>
<polygon fill="#fb8072" stroke="black" points="216.16,-252 23.84,-252 23.84,-216 216.16,-216 216.16,-252"/>
<text text-anchor="middle" x="120" y="-229.8" font-family="Times,serif" font-size="14.00">NgplCommonSkeletonModule </text>
</g>
<!-- NgplCommonModule&#45;&gt;NgplCommonSkeletonModule  -->
<g id="edge6" class="edge">
<title>NgplCommonModule&#45;&gt;NgplCommonSkeletonModule </title>
<path fill="none" stroke="black" stroke-dasharray="5,2" d="M251.3,-175C183.87,-175 91.81,-175 91.81,-175 91.81,-175 91.81,-205.98 91.81,-205.98"/>
<polygon fill="black" stroke="black" points="88.31,-205.98 91.81,-215.98 95.31,-205.98 88.31,-205.98"/>
</g>
</g>
</svg>
