<?xml version="1.0" encoding="UTF-8" standalone="no"?>
<!DOCTYPE svg PUBLIC "-//W3C//DTD SVG 1.1//EN"
 "http://www.w3.org/Graphics/SVG/1.1/DTD/svg11.dtd">
<!-- Generated by graphviz version 2.47.0 (20210316.0004)
 -->
<!-- Title: dependencies Pages: 1 -->
<svg width="504pt" height="284pt"
 viewBox="0.00 0.00 504.00 284.00" xmlns="http://www.w3.org/2000/svg" xmlns:xlink="http://www.w3.org/1999/xlink">
<g id="graph0" class="graph" transform="scale(1 1) rotate(0) translate(4 280)">
<title>dependencies</title>
<polygon fill="white" stroke="transparent" points="-4,4 -4,-280 500,-280 500,4 -4,4"/>
<text text-anchor="start" x="227.01" y="-42.4" font-family="sans-serif" font-weight="bold" font-size="14.00">Legend</text>
<polygon fill="#ffffb3" stroke="transparent" points="14,-10 14,-30 34,-30 34,-10 14,-10"/>
<text text-anchor="start" x="37.63" y="-15.4" font-family="sans-serif" font-size="14.00"> &#160;Declarations</text>
<polygon fill="#8dd3c7" stroke="transparent" points="127,-10 127,-30 147,-30 147,-10 127,-10"/>
<text text-anchor="start" x="150.73" y="-15.4" font-family="sans-serif" font-size="14.00"> &#160;Module</text>
<polygon fill="#80b1d3" stroke="transparent" points="213,-10 213,-30 233,-30 233,-10 213,-10"/>
<text text-anchor="start" x="236.78" y="-15.4" font-family="sans-serif" font-size="14.00"> &#160;Bootstrap</text>
<polygon fill="#fdb462" stroke="transparent" points="310,-10 310,-30 330,-30 330,-10 310,-10"/>
<text text-anchor="start" x="333.67" y="-15.4" font-family="sans-serif" font-size="14.00"> &#160;Providers</text>
<polygon fill="#fb8072" stroke="transparent" points="406,-10 406,-30 426,-30 426,-10 406,-10"/>
<text text-anchor="start" x="429.73" y="-15.4" font-family="sans-serif" font-size="14.00"> &#160;Exports</text>
<g id="clust1" class="cluster">
<title>cluster_NgplCommonSkeletonModule</title>
<polygon fill="none" stroke="black" stroke-dasharray="1,5" points="146,-70 146,-268 350,-268 350,-70 146,-70"/>
</g>
<g id="clust5" class="cluster">
<title>cluster_NgplCommonSkeletonModule_exports</title>
<polygon fill="none" stroke="black" points="159,-208 159,-260 337,-260 337,-208 159,-208"/>
</g>
<g id="clust2" class="cluster">
<title>cluster_NgplCommonSkeletonModule_declarations</title>
<polygon fill="none" stroke="black" points="161,-78 161,-130 335,-130 335,-78 161,-78"/>
</g>
<!-- NgplSkeletonComponent -->
<g id="node1" class="node">
<title>NgplSkeletonComponent</title>
<polygon fill="#ffffb3" stroke="black" points="327.32,-122 168.68,-122 168.68,-86 327.32,-86 327.32,-122"/>
<text text-anchor="middle" x="248" y="-99.8" font-family="Times,serif" font-size="14.00">NgplSkeletonComponent</text>
</g>
<!-- NgplCommonSkeletonModule -->
<g id="node2" class="node">
<title>NgplCommonSkeletonModule</title>
<polygon fill="#8dd3c7" stroke="black" points="342.16,-187 339.16,-191 318.16,-191 315.16,-187 153.84,-187 153.84,-151 342.16,-151 342.16,-187"/>
<text text-anchor="middle" x="248" y="-164.8" font-family="Times,serif" font-size="14.00">NgplCommonSkeletonModule</text>
</g>
<!-- NgplSkeletonComponent&#45;&gt;NgplCommonSkeletonModule -->
<g id="edge1" class="edge">
<title>NgplSkeletonComponent&#45;&gt;NgplCommonSkeletonModule</title>
<path fill="none" stroke="black" d="M248,-122.11C248,-122.11 248,-140.99 248,-140.99"/>
<polygon fill="black" stroke="black" points="244.5,-140.99 248,-150.99 251.5,-140.99 244.5,-140.99"/>
</g>
<!-- NgplSkeletonComponent  -->
<g id="node3" class="node">
<title>NgplSkeletonComponent </title>
<polygon fill="#fb8072" stroke="black" points="328.82,-252 167.18,-252 167.18,-216 328.82,-216 328.82,-252"/>
<text text-anchor="middle" x="248" y="-229.8" font-family="Times,serif" font-size="14.00">NgplSkeletonComponent </text>
</g>
<!-- NgplCommonSkeletonModule&#45;&gt;NgplSkeletonComponent  -->
<g id="edge2" class="edge">
<title>NgplCommonSkeletonModule&#45;&gt;NgplSkeletonComponent </title>
<path fill="none" stroke="black" stroke-dasharray="5,2" d="M248,-187.11C248,-187.11 248,-205.99 248,-205.99"/>
<polygon fill="black" stroke="black" points="244.5,-205.99 248,-215.99 251.5,-205.99 244.5,-205.99"/>
</g>
</g>
</svg>
