<?xml version="1.0" encoding="UTF-8" standalone="no"?>
<!DOCTYPE svg PUBLIC "-//W3C//DTD SVG 1.1//EN"
 "http://www.w3.org/Graphics/SVG/1.1/DTD/svg11.dtd">
<!-- Generated by graphviz version 2.47.0 (20210316.0004)
 -->
<!-- Title: dependencies Pages: 1 -->
<svg width="987pt" height="284pt"
 viewBox="0.00 0.00 987.00 284.00" xmlns="http://www.w3.org/2000/svg" xmlns:xlink="http://www.w3.org/1999/xlink">
<g id="graph0" class="graph" transform="scale(1 1) rotate(0) translate(4 280)">
<title>dependencies</title>
<polygon fill="white" stroke="transparent" points="-4,4 -4,-280 983,-280 983,4 -4,4"/>
<text text-anchor="start" x="468.51" y="-42.4" font-family="sans-serif" font-weight="bold" font-size="14.00">Legend</text>
<polygon fill="#ffffb3" stroke="transparent" points="255.5,-10 255.5,-30 275.5,-30 275.5,-10 255.5,-10"/>
<text text-anchor="start" x="279.13" y="-15.4" font-family="sans-serif" font-size="14.00"> &#160;Declarations</text>
<polygon fill="#8dd3c7" stroke="transparent" points="368.5,-10 368.5,-30 388.5,-30 388.5,-10 368.5,-10"/>
<text text-anchor="start" x="392.23" y="-15.4" font-family="sans-serif" font-size="14.00"> &#160;Module</text>
<polygon fill="#80b1d3" stroke="transparent" points="454.5,-10 454.5,-30 474.5,-30 474.5,-10 454.5,-10"/>
<text text-anchor="start" x="478.28" y="-15.4" font-family="sans-serif" font-size="14.00"> &#160;Bootstrap</text>
<polygon fill="#fdb462" stroke="transparent" points="551.5,-10 551.5,-30 571.5,-30 571.5,-10 551.5,-10"/>
<text text-anchor="start" x="575.17" y="-15.4" font-family="sans-serif" font-size="14.00"> &#160;Providers</text>
<polygon fill="#fb8072" stroke="transparent" points="647.5,-10 647.5,-30 667.5,-30 667.5,-10 647.5,-10"/>
<text text-anchor="start" x="671.23" y="-15.4" font-family="sans-serif" font-size="14.00"> &#160;Exports</text>
<g id="clust1" class="cluster">
<title>cluster_NgplCommonPipesModule</title>
<polygon fill="none" stroke="black" stroke-dasharray="1,5" points="8,-70 8,-268 971,-268 971,-70 8,-70"/>
</g>
<g id="clust11" class="cluster">
<title>cluster_NgplCommonPipesModule_exports</title>
<polygon fill="none" stroke="black" points="16,-208 16,-260 963,-260 963,-208 16,-208"/>
</g>
<g id="clust2" class="cluster">
<title>cluster_NgplCommonPipesModule_declarations</title>
<polygon fill="none" stroke="black" points="29,-78 29,-130 950,-130 950,-78 29,-78"/>
</g>
<!-- NgplFillPipe -->
<g id="node1" class="node">
<title>NgplFillPipe</title>
<polygon fill="#ffffb3" stroke="black" points="942.34,-122 853.66,-122 853.66,-86 942.34,-86 942.34,-122"/>
<text text-anchor="middle" x="898" y="-99.8" font-family="Times,serif" font-size="14.00">NgplFillPipe</text>
</g>
<!-- NgplCommonPipesModule -->
<g id="node8" class="node">
<title>NgplCommonPipesModule</title>
<polygon fill="#8dd3c7" stroke="black" points="549,-187 546,-191 525,-191 522,-187 379,-187 379,-151 549,-151 549,-187"/>
<text text-anchor="middle" x="464" y="-164.8" font-family="Times,serif" font-size="14.00">NgplCommonPipesModule</text>
</g>
<!-- NgplFillPipe&#45;&gt;NgplCommonPipesModule -->
<g id="edge1" class="edge">
<title>NgplFillPipe&#45;&gt;NgplCommonPipesModule</title>
<path fill="none" stroke="black" d="M858.46,-122.27C858.46,-140.56 858.46,-166 858.46,-166 858.46,-166 559.11,-166 559.11,-166"/>
<polygon fill="black" stroke="black" points="559.11,-162.5 549.11,-166 559.11,-169.5 559.11,-162.5"/>
</g>
<!-- NgplGeneratePagesPipe -->
<g id="node2" class="node">
<title>NgplGeneratePagesPipe</title>
<polygon fill="#ffffb3" stroke="black" points="836.06,-122 683.94,-122 683.94,-86 836.06,-86 836.06,-122"/>
<text text-anchor="middle" x="760" y="-99.8" font-family="Times,serif" font-size="14.00">NgplGeneratePagesPipe</text>
</g>
<!-- NgplGeneratePagesPipe&#45;&gt;NgplCommonPipesModule -->
<g id="edge2" class="edge">
<title>NgplGeneratePagesPipe&#45;&gt;NgplCommonPipesModule</title>
<path fill="none" stroke="black" d="M787.09,-122.01C787.09,-138.05 787.09,-159 787.09,-159 787.09,-159 559.31,-159 559.31,-159"/>
<polygon fill="black" stroke="black" points="559.31,-155.5 549.31,-159 559.31,-162.5 559.31,-155.5"/>
</g>
<!-- NgplHighlightPipe -->
<g id="node3" class="node">
<title>NgplHighlightPipe</title>
<polygon fill="#ffffb3" stroke="black" points="666.05,-122 543.95,-122 543.95,-86 666.05,-86 666.05,-122"/>
<text text-anchor="middle" x="605" y="-99.8" font-family="Times,serif" font-size="14.00">NgplHighlightPipe</text>
</g>
<!-- NgplHighlightPipe&#45;&gt;NgplCommonPipesModule -->
<g id="edge3" class="edge">
<title>NgplHighlightPipe&#45;&gt;NgplCommonPipesModule</title>
<path fill="none" stroke="black" d="M543.71,-104C538.11,-104 534.5,-104 534.5,-104 534.5,-104 534.5,-140.89 534.5,-140.89"/>
<polygon fill="black" stroke="black" points="531,-140.89 534.5,-150.89 538,-140.89 531,-140.89"/>
</g>
<!-- NgplSafeHtmlPipe -->
<g id="node4" class="node">
<title>NgplSafeHtmlPipe</title>
<polygon fill="#ffffb3" stroke="black" points="525.04,-122 402.96,-122 402.96,-86 525.04,-86 525.04,-122"/>
<text text-anchor="middle" x="464" y="-99.8" font-family="Times,serif" font-size="14.00">NgplSafeHtmlPipe</text>
</g>
<!-- NgplSafeHtmlPipe&#45;&gt;NgplCommonPipesModule -->
<g id="edge4" class="edge">
<title>NgplSafeHtmlPipe&#45;&gt;NgplCommonPipesModule</title>
<path fill="none" stroke="black" d="M464,-122.11C464,-122.11 464,-140.99 464,-140.99"/>
<polygon fill="black" stroke="black" points="460.5,-140.99 464,-150.99 467.5,-140.99 460.5,-140.99"/>
</g>
<!-- NgplSafePipe -->
<g id="node5" class="node">
<title>NgplSafePipe</title>
<polygon fill="#ffffb3" stroke="black" points="384.76,-122 291.24,-122 291.24,-86 384.76,-86 384.76,-122"/>
<text text-anchor="middle" x="338" y="-99.8" font-family="Times,serif" font-size="14.00">NgplSafePipe</text>
</g>
<!-- NgplSafePipe&#45;&gt;NgplCommonPipesModule -->
<g id="edge5" class="edge">
<title>NgplSafePipe&#45;&gt;NgplCommonPipesModule</title>
<path fill="none" stroke="black" d="M384.84,-104C390.21,-104 393.81,-104 393.81,-104 393.81,-104 393.81,-140.89 393.81,-140.89"/>
<polygon fill="black" stroke="black" points="390.31,-140.89 393.81,-150.89 397.31,-140.89 390.31,-140.89"/>
</g>
<!-- NgplSliceItemsPipe -->
<g id="node6" class="node">
<title>NgplSliceItemsPipe</title>
<polygon fill="#ffffb3" stroke="black" points="272.98,-122 145.02,-122 145.02,-86 272.98,-86 272.98,-122"/>
<text text-anchor="middle" x="209" y="-99.8" font-family="Times,serif" font-size="14.00">NgplSliceItemsPipe</text>
</g>
<!-- NgplSliceItemsPipe&#45;&gt;NgplCommonPipesModule -->
<g id="edge6" class="edge">
<title>NgplSliceItemsPipe&#45;&gt;NgplCommonPipesModule</title>
<path fill="none" stroke="black" d="M226.83,-122.01C226.83,-138.05 226.83,-159 226.83,-159 226.83,-159 368.71,-159 368.71,-159"/>
<polygon fill="black" stroke="black" points="368.71,-162.5 378.71,-159 368.71,-155.5 368.71,-162.5"/>
</g>
<!-- TruncatePipe -->
<g id="node7" class="node">
<title>TruncatePipe</title>
<polygon fill="#ffffb3" stroke="black" points="127.14,-122 36.86,-122 36.86,-86 127.14,-86 127.14,-122"/>
<text text-anchor="middle" x="82" y="-99.8" font-family="Times,serif" font-size="14.00">TruncatePipe</text>
</g>
<!-- TruncatePipe&#45;&gt;NgplCommonPipesModule -->
<g id="edge7" class="edge">
<title>TruncatePipe&#45;&gt;NgplCommonPipesModule</title>
<path fill="none" stroke="black" d="M122.69,-122.27C122.69,-140.56 122.69,-166 122.69,-166 122.69,-166 368.75,-166 368.75,-166"/>
<polygon fill="black" stroke="black" points="368.75,-169.5 378.75,-166 368.75,-162.5 368.75,-169.5"/>
</g>
<!-- NgplFillPipe  -->
<g id="node9" class="node">
<title>NgplFillPipe </title>
<polygon fill="#fb8072" stroke="black" points="954.84,-252 863.16,-252 863.16,-216 954.84,-216 954.84,-252"/>
<text text-anchor="middle" x="909" y="-229.8" font-family="Times,serif" font-size="14.00">NgplFillPipe </text>
</g>
<!-- NgplCommonPipesModule&#45;&gt;NgplFillPipe  -->
<g id="edge8" class="edge">
<title>NgplCommonPipesModule&#45;&gt;NgplFillPipe </title>
<path fill="none" stroke="black" stroke-dasharray="5,2" d="M549.09,-173C676.65,-173 902.62,-173 902.62,-173 902.62,-173 902.62,-205.7 902.62,-205.7"/>
<polygon fill="black" stroke="black" points="899.13,-205.7 902.62,-215.7 906.13,-205.7 899.13,-205.7"/>
</g>
<!-- NgplGeneratePagesPipe  -->
<g id="node10" class="node">
<title>NgplGeneratePagesPipe </title>
<polygon fill="#fb8072" stroke="black" points="844.56,-252 689.44,-252 689.44,-216 844.56,-216 844.56,-252"/>
<text text-anchor="middle" x="767" y="-229.8" font-family="Times,serif" font-size="14.00">NgplGeneratePagesPipe </text>
</g>
<!-- NgplCommonPipesModule&#45;&gt;NgplGeneratePagesPipe  -->
<g id="edge9" class="edge">
<title>NgplCommonPipesModule&#45;&gt;NgplGeneratePagesPipe </title>
<path fill="none" stroke="black" stroke-dasharray="5,2" d="M549.24,-180C629.72,-180 738.16,-180 738.16,-180 738.16,-180 738.16,-205.72 738.16,-205.72"/>
<polygon fill="black" stroke="black" points="734.66,-205.72 738.16,-215.72 741.66,-205.72 734.66,-205.72"/>
</g>
<!-- NgplHighlightPipe  -->
<g id="node11" class="node">
<title>NgplHighlightPipe </title>
<polygon fill="#fb8072" stroke="black" points="671.05,-252 544.95,-252 544.95,-216 671.05,-216 671.05,-252"/>
<text text-anchor="middle" x="608" y="-229.8" font-family="Times,serif" font-size="14.00">NgplHighlightPipe </text>
</g>
<!-- NgplCommonPipesModule&#45;&gt;NgplHighlightPipe  -->
<g id="edge10" class="edge">
<title>NgplCommonPipesModule&#45;&gt;NgplHighlightPipe </title>
<path fill="none" stroke="black" stroke-dasharray="5,2" d="M536,-187.11C536,-206.34 536,-234 536,-234 536,-234 536.88,-234 536.88,-234"/>
<polygon fill="black" stroke="black" points="534.82,-237.5 544.82,-234 534.82,-230.5 534.82,-237.5"/>
</g>
<!-- NgplSafeHtmlPipe  -->
<g id="node12" class="node">
<title>NgplSafeHtmlPipe </title>
<polygon fill="#fb8072" stroke="black" points="527.04,-252 400.96,-252 400.96,-216 527.04,-216 527.04,-252"/>
<text text-anchor="middle" x="464" y="-229.8" font-family="Times,serif" font-size="14.00">NgplSafeHtmlPipe </text>
</g>
<!-- NgplCommonPipesModule&#45;&gt;NgplSafeHtmlPipe  -->
<g id="edge11" class="edge">
<title>NgplCommonPipesModule&#45;&gt;NgplSafeHtmlPipe </title>
<path fill="none" stroke="black" stroke-dasharray="5,2" d="M464,-187.11C464,-187.11 464,-205.99 464,-205.99"/>
<polygon fill="black" stroke="black" points="460.5,-205.99 464,-215.99 467.5,-205.99 460.5,-205.99"/>
</g>
<!-- NgplSafePipe  -->
<g id="node13" class="node">
<title>NgplSafePipe </title>
<polygon fill="#fb8072" stroke="black" points="382.76,-252 285.24,-252 285.24,-216 382.76,-216 382.76,-252"/>
<text text-anchor="middle" x="334" y="-229.8" font-family="Times,serif" font-size="14.00">NgplSafePipe </text>
</g>
<!-- NgplCommonPipesModule&#45;&gt;NgplSafePipe  -->
<g id="edge12" class="edge">
<title>NgplCommonPipesModule&#45;&gt;NgplSafePipe </title>
<path fill="none" stroke="black" stroke-dasharray="5,2" d="M391.81,-187.11C391.81,-206.34 391.81,-234 391.81,-234 391.81,-234 390.9,-234 390.9,-234"/>
<polygon fill="black" stroke="black" points="392.77,-230.5 382.77,-234 392.77,-237.5 392.77,-230.5"/>
</g>
<!-- NgplSliceItemsPipe  -->
<g id="node14" class="node">
<title>NgplSliceItemsPipe </title>
<polygon fill="#fb8072" stroke="black" points="267.98,-252 136.02,-252 136.02,-216 267.98,-216 267.98,-252"/>
<text text-anchor="middle" x="202" y="-229.8" font-family="Times,serif" font-size="14.00">NgplSliceItemsPipe </text>
</g>
<!-- NgplCommonPipesModule&#45;&gt;NgplSliceItemsPipe  -->
<g id="edge13" class="edge">
<title>NgplCommonPipesModule&#45;&gt;NgplSliceItemsPipe </title>
<path fill="none" stroke="black" stroke-dasharray="5,2" d="M378.68,-180C296.93,-180 185.92,-180 185.92,-180 185.92,-180 185.92,-205.72 185.92,-205.72"/>
<polygon fill="black" stroke="black" points="182.42,-205.72 185.92,-215.72 189.42,-205.72 182.42,-205.72"/>
</g>
<!-- TruncatePipe  -->
<g id="node15" class="node">
<title>TruncatePipe </title>
<polygon fill="#fb8072" stroke="black" points="118.14,-252 23.86,-252 23.86,-216 118.14,-216 118.14,-252"/>
<text text-anchor="middle" x="71" y="-229.8" font-family="Times,serif" font-size="14.00">TruncatePipe </text>
</g>
<!-- NgplCommonPipesModule&#45;&gt;TruncatePipe  -->
<g id="edge14" class="edge">
<title>NgplCommonPipesModule&#45;&gt;TruncatePipe </title>
<path fill="none" stroke="black" stroke-dasharray="5,2" d="M378.67,-173C264.82,-173 77.38,-173 77.38,-173 77.38,-173 77.38,-205.7 77.38,-205.7"/>
<polygon fill="black" stroke="black" points="73.88,-205.7 77.38,-215.7 80.88,-205.7 73.88,-205.7"/>
</g>
</g>
</svg>
