<?xml version="1.0" encoding="UTF-8" standalone="no"?>
<!DOCTYPE svg PUBLIC "-//W3C//DTD SVG 1.1//EN"
 "http://www.w3.org/Graphics/SVG/1.1/DTD/svg11.dtd">
<!-- Generated by graphviz version 2.47.0 (20210316.0004)
 -->
<!-- Title: dependencies Pages: 1 -->
<svg width="2081pt" height="284pt"
 viewBox="0.00 0.00 2081.00 284.00" xmlns="http://www.w3.org/2000/svg" xmlns:xlink="http://www.w3.org/1999/xlink">
<g id="graph0" class="graph" transform="scale(1 1) rotate(0) translate(4 280)">
<title>dependencies</title>
<polygon fill="white" stroke="transparent" points="-4,4 -4,-280 2077,-280 2077,4 -4,4"/>
<text text-anchor="start" x="1015.51" y="-42.4" font-family="sans-serif" font-weight="bold" font-size="14.00">Legend</text>
<polygon fill="#ffffb3" stroke="transparent" points="802.5,-10 802.5,-30 822.5,-30 822.5,-10 802.5,-10"/>
<text text-anchor="start" x="826.13" y="-15.4" font-family="sans-serif" font-size="14.00"> &#160;Declarations</text>
<polygon fill="#8dd3c7" stroke="transparent" points="915.5,-10 915.5,-30 935.5,-30 935.5,-10 915.5,-10"/>
<text text-anchor="start" x="939.23" y="-15.4" font-family="sans-serif" font-size="14.00"> &#160;Module</text>
<polygon fill="#80b1d3" stroke="transparent" points="1001.5,-10 1001.5,-30 1021.5,-30 1021.5,-10 1001.5,-10"/>
<text text-anchor="start" x="1025.28" y="-15.4" font-family="sans-serif" font-size="14.00"> &#160;Bootstrap</text>
<polygon fill="#fdb462" stroke="transparent" points="1098.5,-10 1098.5,-30 1118.5,-30 1118.5,-10 1098.5,-10"/>
<text text-anchor="start" x="1122.17" y="-15.4" font-family="sans-serif" font-size="14.00"> &#160;Providers</text>
<polygon fill="#fb8072" stroke="transparent" points="1194.5,-10 1194.5,-30 1214.5,-30 1214.5,-10 1194.5,-10"/>
<text text-anchor="start" x="1218.23" y="-15.4" font-family="sans-serif" font-size="14.00"> &#160;Exports</text>
<g id="clust1" class="cluster">
<title>cluster_NgplCommonDirectivesModule</title>
<polygon fill="none" stroke="black" stroke-dasharray="1,5" points="8,-70 8,-268 2065,-268 2065,-70 8,-70"/>
</g>
<g id="clust14" class="cluster">
<title>cluster_NgplCommonDirectivesModule_exports</title>
<polygon fill="none" stroke="black" points="16,-208 16,-260 2057,-260 2057,-208 16,-208"/>
</g>
<g id="clust2" class="cluster">
<title>cluster_NgplCommonDirectivesModule_declarations</title>
<polygon fill="none" stroke="black" points="37,-78 37,-130 2044,-130 2044,-78 37,-78"/>
</g>
<!-- NgplControlErrorContainerDirective -->
<g id="node1" class="node">
<title>NgplControlErrorContainerDirective</title>
<polygon fill="#ffffb3" stroke="black" points="2035.6,-122 1812.4,-122 1812.4,-86 2035.6,-86 2035.6,-122"/>
<text text-anchor="middle" x="1924" y="-99.8" font-family="Times,serif" font-size="14.00">NgplControlErrorContainerDirective</text>
</g>
<!-- NgplCommonDirectivesModule -->
<g id="node11" class="node">
<title>NgplCommonDirectivesModule</title>
<polygon fill="#8dd3c7" stroke="black" points="976.69,-187 973.69,-191 952.69,-191 949.69,-187 779.31,-187 779.31,-151 976.69,-151 976.69,-187"/>
<text text-anchor="middle" x="878" y="-164.8" font-family="Times,serif" font-size="14.00">NgplCommonDirectivesModule</text>
</g>
<!-- NgplControlErrorContainerDirective&#45;&gt;NgplCommonDirectivesModule -->
<g id="edge1" class="edge">
<title>NgplControlErrorContainerDirective&#45;&gt;NgplCommonDirectivesModule</title>
<path fill="none" stroke="black" d="M1816.82,-122.22C1816.82,-140.83 1816.82,-167 1816.82,-167 1816.82,-167 986.7,-167 986.7,-167"/>
<polygon fill="black" stroke="black" points="986.7,-163.5 976.7,-167 986.7,-170.5 986.7,-163.5"/>
</g>
<!-- NgplControlErrorsDirective -->
<g id="node2" class="node">
<title>NgplControlErrorsDirective</title>
<polygon fill="#ffffb3" stroke="black" points="1793.84,-122 1620.16,-122 1620.16,-86 1793.84,-86 1793.84,-122"/>
<text text-anchor="middle" x="1707" y="-99.8" font-family="Times,serif" font-size="14.00">NgplControlErrorsDirective</text>
</g>
<!-- NgplControlErrorsDirective&#45;&gt;NgplCommonDirectivesModule -->
<g id="edge2" class="edge">
<title>NgplControlErrorsDirective&#45;&gt;NgplCommonDirectivesModule</title>
<path fill="none" stroke="black" d="M1738.06,-122.02C1738.06,-139.37 1738.06,-163 1738.06,-163 1738.06,-163 986.66,-163 986.66,-163"/>
<polygon fill="black" stroke="black" points="986.66,-159.5 976.66,-163 986.66,-166.5 986.66,-159.5"/>
</g>
<!-- NgplDecimalNumberDirective -->
<g id="node3" class="node">
<title>NgplDecimalNumberDirective</title>
<polygon fill="#ffffb3" stroke="black" points="1601.87,-122 1412.13,-122 1412.13,-86 1601.87,-86 1601.87,-122"/>
<text text-anchor="middle" x="1507" y="-99.8" font-family="Times,serif" font-size="14.00">NgplDecimalNumberDirective</text>
</g>
<!-- NgplDecimalNumberDirective&#45;&gt;NgplCommonDirectivesModule -->
<g id="edge3" class="edge">
<title>NgplDecimalNumberDirective&#45;&gt;NgplCommonDirectivesModule</title>
<path fill="none" stroke="black" d="M1539.65,-122.01C1539.65,-138.05 1539.65,-159 1539.65,-159 1539.65,-159 986.7,-159 986.7,-159"/>
<polygon fill="black" stroke="black" points="986.7,-155.5 976.7,-159 986.7,-162.5 986.7,-155.5"/>
</g>
<!-- NgplDisableReactiveControlDirective -->
<g id="node4" class="node">
<title>NgplDisableReactiveControlDirective</title>
<polygon fill="#ffffb3" stroke="black" points="1394.1,-122 1163.9,-122 1163.9,-86 1394.1,-86 1394.1,-122"/>
<text text-anchor="middle" x="1279" y="-99.8" font-family="Times,serif" font-size="14.00">NgplDisableReactiveControlDirective</text>
</g>
<!-- NgplDisableReactiveControlDirective&#45;&gt;NgplCommonDirectivesModule -->
<g id="edge4" class="edge">
<title>NgplDisableReactiveControlDirective&#45;&gt;NgplCommonDirectivesModule</title>
<path fill="none" stroke="black" d="M1317.52,-122.12C1317.52,-136.78 1317.52,-155 1317.52,-155 1317.52,-155 986.64,-155 986.64,-155"/>
<polygon fill="black" stroke="black" points="986.64,-151.5 976.64,-155 986.64,-158.5 986.64,-151.5"/>
</g>
<!-- NgplFormSubmitDirective -->
<g id="node5" class="node">
<title>NgplFormSubmitDirective</title>
<polygon fill="#ffffb3" stroke="black" points="1145.37,-122 978.63,-122 978.63,-86 1145.37,-86 1145.37,-122"/>
<text text-anchor="middle" x="1062" y="-99.8" font-family="Times,serif" font-size="14.00">NgplFormSubmitDirective</text>
</g>
<!-- NgplFormSubmitDirective&#45;&gt;NgplCommonDirectivesModule -->
<g id="edge5" class="edge">
<title>NgplFormSubmitDirective&#45;&gt;NgplCommonDirectivesModule</title>
<path fill="none" stroke="black" d="M978.33,-104C972.4,-104 968.7,-104 968.7,-104 968.7,-104 968.7,-140.89 968.7,-140.89"/>
<polygon fill="black" stroke="black" points="965.2,-140.89 968.7,-150.89 972.2,-140.89 965.2,-140.89"/>
</g>
<!-- NgplIntegerNumberDirective -->
<g id="node6" class="node">
<title>NgplIntegerNumberDirective</title>
<polygon fill="#ffffb3" stroke="black" points="960.59,-122 779.41,-122 779.41,-86 960.59,-86 960.59,-122"/>
<text text-anchor="middle" x="870" y="-99.8" font-family="Times,serif" font-size="14.00">NgplIntegerNumberDirective</text>
</g>
<!-- NgplIntegerNumberDirective&#45;&gt;NgplCommonDirectivesModule -->
<g id="edge6" class="edge">
<title>NgplIntegerNumberDirective&#45;&gt;NgplCommonDirectivesModule</title>
<path fill="none" stroke="black" d="M870.1,-122.11C870.1,-122.11 870.1,-140.99 870.1,-140.99"/>
<polygon fill="black" stroke="black" points="866.6,-140.99 870.1,-150.99 873.6,-140.99 866.6,-140.99"/>
</g>
<!-- NgplMinWidthDirective -->
<g id="node7" class="node">
<title>NgplMinWidthDirective</title>
<polygon fill="#ffffb3" stroke="black" points="761.41,-122 606.59,-122 606.59,-86 761.41,-86 761.41,-122"/>
<text text-anchor="middle" x="684" y="-99.8" font-family="Times,serif" font-size="14.00">NgplMinWidthDirective</text>
</g>
<!-- NgplMinWidthDirective&#45;&gt;NgplCommonDirectivesModule -->
<g id="edge7" class="edge">
<title>NgplMinWidthDirective&#45;&gt;NgplCommonDirectivesModule</title>
<path fill="none" stroke="black" d="M757.58,-122.12C757.58,-136.78 757.58,-155 757.58,-155 757.58,-155 769.39,-155 769.39,-155"/>
<polygon fill="black" stroke="black" points="769.39,-158.5 779.39,-155 769.39,-151.5 769.39,-158.5"/>
</g>
<!-- NgplNumberFormatDirective -->
<g id="node8" class="node">
<title>NgplNumberFormatDirective</title>
<polygon fill="#ffffb3" stroke="black" points="589.39,-122 406.61,-122 406.61,-86 589.39,-86 589.39,-122"/>
<text text-anchor="middle" x="498" y="-99.8" font-family="Times,serif" font-size="14.00">NgplNumberFormatDirective</text>
</g>
<!-- NgplNumberFormatDirective&#45;&gt;NgplCommonDirectivesModule -->
<g id="edge8" class="edge">
<title>NgplNumberFormatDirective&#45;&gt;NgplCommonDirectivesModule</title>
<path fill="none" stroke="black" d="M583.57,-122.01C583.57,-138.05 583.57,-159 583.57,-159 583.57,-159 769.14,-159 769.14,-159"/>
<polygon fill="black" stroke="black" points="769.14,-162.5 779.14,-159 769.14,-155.5 769.14,-162.5"/>
</g>
<!-- NgplPreventKeyboardDirective -->
<g id="node9" class="node">
<title>NgplPreventKeyboardDirective</title>
<polygon fill="#ffffb3" stroke="black" points="389.04,-122 194.96,-122 194.96,-86 389.04,-86 389.04,-122"/>
<text text-anchor="middle" x="292" y="-99.8" font-family="Times,serif" font-size="14.00">NgplPreventKeyboardDirective</text>
</g>
<!-- NgplPreventKeyboardDirective&#45;&gt;NgplCommonDirectivesModule -->
<g id="edge9" class="edge">
<title>NgplPreventKeyboardDirective&#45;&gt;NgplCommonDirectivesModule</title>
<path fill="none" stroke="black" d="M381.39,-122.02C381.39,-139.37 381.39,-163 381.39,-163 381.39,-163 769.29,-163 769.29,-163"/>
<polygon fill="black" stroke="black" points="769.29,-166.5 779.29,-163 769.29,-159.5 769.29,-166.5"/>
</g>
<!-- NgplWidthDirective -->
<g id="node10" class="node">
<title>NgplWidthDirective</title>
<polygon fill="#ffffb3" stroke="black" points="176.58,-122 45.42,-122 45.42,-86 176.58,-86 176.58,-122"/>
<text text-anchor="middle" x="111" y="-99.8" font-family="Times,serif" font-size="14.00">NgplWidthDirective</text>
</g>
<!-- NgplWidthDirective&#45;&gt;NgplCommonDirectivesModule -->
<g id="edge10" class="edge">
<title>NgplWidthDirective&#45;&gt;NgplCommonDirectivesModule</title>
<path fill="none" stroke="black" d="M167.26,-122.22C167.26,-140.83 167.26,-167 167.26,-167 167.26,-167 769.17,-167 769.17,-167"/>
<polygon fill="black" stroke="black" points="769.17,-170.5 779.17,-167 769.17,-163.5 769.17,-170.5"/>
</g>
<!-- NgplControlErrorContainerDirective  -->
<g id="node12" class="node">
<title>NgplControlErrorContainerDirective </title>
<polygon fill="#fb8072" stroke="black" points="2048.6,-252 1821.4,-252 1821.4,-216 2048.6,-216 2048.6,-252"/>
<text text-anchor="middle" x="1935" y="-229.8" font-family="Times,serif" font-size="14.00">NgplControlErrorContainerDirective </text>
</g>
<!-- NgplCommonDirectivesModule&#45;&gt;NgplControlErrorContainerDirective  -->
<g id="edge11" class="edge">
<title>NgplCommonDirectivesModule&#45;&gt;NgplControlErrorContainerDirective </title>
<path fill="none" stroke="black" stroke-dasharray="5,2" d="M976.84,-171C1238.38,-171 1928.62,-171 1928.62,-171 1928.62,-171 1928.62,-205.78 1928.62,-205.78"/>
<polygon fill="black" stroke="black" points="1925.13,-205.78 1928.62,-215.78 1932.13,-205.78 1925.13,-205.78"/>
</g>
<!-- NgplControlErrorsDirective  -->
<g id="node13" class="node">
<title>NgplControlErrorsDirective </title>
<polygon fill="#fb8072" stroke="black" points="1803.84,-252 1626.16,-252 1626.16,-216 1803.84,-216 1803.84,-252"/>
<text text-anchor="middle" x="1715" y="-229.8" font-family="Times,serif" font-size="14.00">NgplControlErrorsDirective </text>
</g>
<!-- NgplCommonDirectivesModule&#45;&gt;NgplControlErrorsDirective  -->
<g id="edge12" class="edge">
<title>NgplCommonDirectivesModule&#45;&gt;NgplControlErrorsDirective </title>
<path fill="none" stroke="black" stroke-dasharray="5,2" d="M976.61,-175C1191.35,-175 1682.19,-175 1682.19,-175 1682.19,-175 1682.19,-205.98 1682.19,-205.98"/>
<polygon fill="black" stroke="black" points="1678.69,-205.98 1682.19,-215.98 1685.69,-205.98 1678.69,-205.98"/>
</g>
<!-- NgplDecimalNumberDirective  -->
<g id="node14" class="node">
<title>NgplDecimalNumberDirective </title>
<polygon fill="#fb8072" stroke="black" points="1608.37,-252 1415.63,-252 1415.63,-216 1608.37,-216 1608.37,-252"/>
<text text-anchor="middle" x="1512" y="-229.8" font-family="Times,serif" font-size="14.00">NgplDecimalNumberDirective </text>
</g>
<!-- NgplCommonDirectivesModule&#45;&gt;NgplDecimalNumberDirective  -->
<g id="edge13" class="edge">
<title>NgplCommonDirectivesModule&#45;&gt;NgplDecimalNumberDirective </title>
<path fill="none" stroke="black" stroke-dasharray="5,2" d="M976.68,-179C1146.88,-179 1477.6,-179 1477.6,-179 1477.6,-179 1477.6,-205.99 1477.6,-205.99"/>
<polygon fill="black" stroke="black" points="1474.1,-205.99 1477.6,-215.99 1481.1,-205.99 1474.1,-205.99"/>
</g>
<!-- NgplDisableReactiveControlDirective  -->
<g id="node15" class="node">
<title>NgplDisableReactiveControlDirective </title>
<polygon fill="#fb8072" stroke="black" points="1398.1,-252 1163.9,-252 1163.9,-216 1398.1,-216 1398.1,-252"/>
<text text-anchor="middle" x="1281" y="-229.8" font-family="Times,serif" font-size="14.00">NgplDisableReactiveControlDirective </text>
</g>
<!-- NgplCommonDirectivesModule&#45;&gt;NgplDisableReactiveControlDirective  -->
<g id="edge14" class="edge">
<title>NgplCommonDirectivesModule&#45;&gt;NgplDisableReactiveControlDirective </title>
<path fill="none" stroke="black" stroke-dasharray="5,2" d="M976.64,-183C1084.05,-183 1240.73,-183 1240.73,-183 1240.73,-183 1240.73,-205.88 1240.73,-205.88"/>
<polygon fill="black" stroke="black" points="1237.23,-205.88 1240.73,-215.88 1244.23,-205.88 1237.23,-205.88"/>
</g>
<!-- NgplFormSubmitDirective  -->
<g id="node16" class="node">
<title>NgplFormSubmitDirective </title>
<polygon fill="#fb8072" stroke="black" points="1146.37,-252 975.63,-252 975.63,-216 1146.37,-216 1146.37,-252"/>
<text text-anchor="middle" x="1061" y="-229.8" font-family="Times,serif" font-size="14.00">NgplFormSubmitDirective </text>
</g>
<!-- NgplCommonDirectivesModule&#45;&gt;NgplFormSubmitDirective  -->
<g id="edge15" class="edge">
<title>NgplCommonDirectivesModule&#45;&gt;NgplFormSubmitDirective </title>
<path fill="none" stroke="black" stroke-dasharray="5,2" d="M966.68,-187.11C966.68,-206.34 966.68,-234 966.68,-234 966.68,-234 967.59,-234 967.59,-234"/>
<polygon fill="black" stroke="black" points="965.73,-237.5 975.72,-234 965.72,-230.5 965.73,-237.5"/>
</g>
<!-- NgplIntegerNumberDirective  -->
<g id="node17" class="node">
<title>NgplIntegerNumberDirective </title>
<polygon fill="#fb8072" stroke="black" points="957.59,-252 772.41,-252 772.41,-216 957.59,-216 957.59,-252"/>
<text text-anchor="middle" x="865" y="-229.8" font-family="Times,serif" font-size="14.00">NgplIntegerNumberDirective </text>
</g>
<!-- NgplCommonDirectivesModule&#45;&gt;NgplIntegerNumberDirective  -->
<g id="edge16" class="edge">
<title>NgplCommonDirectivesModule&#45;&gt;NgplIntegerNumberDirective </title>
<path fill="none" stroke="black" stroke-dasharray="5,2" d="M868.48,-187.11C868.48,-187.11 868.48,-205.99 868.48,-205.99"/>
<polygon fill="black" stroke="black" points="864.98,-205.99 868.48,-215.99 871.98,-205.99 864.98,-205.99"/>
</g>
<!-- NgplMinWidthDirective  -->
<g id="node18" class="node">
<title>NgplMinWidthDirective </title>
<polygon fill="#fb8072" stroke="black" points="753.91,-252 596.09,-252 596.09,-216 753.91,-216 753.91,-252"/>
<text text-anchor="middle" x="675" y="-229.8" font-family="Times,serif" font-size="14.00">NgplMinWidthDirective </text>
</g>
<!-- NgplCommonDirectivesModule&#45;&gt;NgplMinWidthDirective  -->
<g id="edge17" class="edge">
<title>NgplCommonDirectivesModule&#45;&gt;NgplMinWidthDirective </title>
<path fill="none" stroke="black" stroke-dasharray="5,2" d="M779.19,-183C729.78,-183 680.38,-183 680.38,-183 680.38,-183 680.38,-205.88 680.38,-205.88"/>
<polygon fill="black" stroke="black" points="676.88,-205.88 680.38,-215.88 683.88,-205.88 676.88,-205.88"/>
</g>
<!-- NgplNumberFormatDirective  -->
<g id="node19" class="node">
<title>NgplNumberFormatDirective </title>
<polygon fill="#fb8072" stroke="black" points="577.89,-252 392.11,-252 392.11,-216 577.89,-216 577.89,-252"/>
<text text-anchor="middle" x="485" y="-229.8" font-family="Times,serif" font-size="14.00">NgplNumberFormatDirective </text>
</g>
<!-- NgplCommonDirectivesModule&#45;&gt;NgplNumberFormatDirective  -->
<g id="edge18" class="edge">
<title>NgplCommonDirectivesModule&#45;&gt;NgplNumberFormatDirective </title>
<path fill="none" stroke="black" stroke-dasharray="5,2" d="M779.19,-179C664.94,-179 492.38,-179 492.38,-179 492.38,-179 492.38,-205.99 492.38,-205.99"/>
<polygon fill="black" stroke="black" points="488.88,-205.99 492.38,-215.99 495.88,-205.99 488.88,-205.99"/>
</g>
<!-- NgplPreventKeyboardDirective  -->
<g id="node20" class="node">
<title>NgplPreventKeyboardDirective </title>
<polygon fill="#fb8072" stroke="black" points="373.54,-252 176.46,-252 176.46,-216 373.54,-216 373.54,-252"/>
<text text-anchor="middle" x="275" y="-229.8" font-family="Times,serif" font-size="14.00">NgplPreventKeyboardDirective </text>
</g>
<!-- NgplCommonDirectivesModule&#45;&gt;NgplPreventKeyboardDirective  -->
<g id="edge19" class="edge">
<title>NgplCommonDirectivesModule&#45;&gt;NgplPreventKeyboardDirective </title>
<path fill="none" stroke="black" stroke-dasharray="5,2" d="M779.31,-175C610.51,-175 284.38,-175 284.38,-175 284.38,-175 284.38,-205.98 284.38,-205.98"/>
<polygon fill="black" stroke="black" points="280.88,-205.98 284.38,-215.98 287.88,-205.98 280.88,-205.98"/>
</g>
<!-- NgplWidthDirective  -->
<g id="node21" class="node">
<title>NgplWidthDirective </title>
<polygon fill="#fb8072" stroke="black" points="158.08,-252 23.92,-252 23.92,-216 158.08,-216 158.08,-252"/>
<text text-anchor="middle" x="91" y="-229.8" font-family="Times,serif" font-size="14.00">NgplWidthDirective </text>
</g>
<!-- NgplCommonDirectivesModule&#45;&gt;NgplWidthDirective  -->
<g id="edge20" class="edge">
<title>NgplCommonDirectivesModule&#45;&gt;NgplWidthDirective </title>
<path fill="none" stroke="black" stroke-dasharray="5,2" d="M779.31,-171C570.27,-171 101.88,-171 101.88,-171 101.88,-171 101.88,-205.78 101.88,-205.78"/>
<polygon fill="black" stroke="black" points="98.38,-205.78 101.88,-215.78 105.38,-205.78 98.38,-205.78"/>
</g>
</g>
</svg>
