<?xml version="1.0" encoding="UTF-8" standalone="no"?>
<!DOCTYPE svg PUBLIC "-//W3C//DTD SVG 1.1//EN"
 "http://www.w3.org/Graphics/SVG/1.1/DTD/svg11.dtd">
<!-- Generated by graphviz version 2.47.0 (20210316.0004)
 -->
<!-- Title: dependencies Pages: 1 -->
<svg width="4727pt" height="436pt"
 viewBox="0.00 0.00 4727.00 436.00" xmlns="http://www.w3.org/2000/svg" xmlns:xlink="http://www.w3.org/1999/xlink">
<g id="graph0" class="graph" transform="scale(1 1) rotate(0) translate(4 432)">
<title>dependencies</title>
<polygon fill="white" stroke="transparent" points="-4,4 -4,-432 4723,-432 4723,4 -4,4"/>
<text text-anchor="start" x="2338.51" y="-42.4" font-family="sans-serif" font-weight="bold" font-size="14.00">Legend</text>
<polygon fill="#ffffb3" stroke="transparent" points="2125.5,-10 2125.5,-30 2145.5,-30 2145.5,-10 2125.5,-10"/>
<text text-anchor="start" x="2149.13" y="-15.4" font-family="sans-serif" font-size="14.00"> &#160;Declarations</text>
<polygon fill="#8dd3c7" stroke="transparent" points="2238.5,-10 2238.5,-30 2258.5,-30 2258.5,-10 2238.5,-10"/>
<text text-anchor="start" x="2262.23" y="-15.4" font-family="sans-serif" font-size="14.00"> &#160;Module</text>
<polygon fill="#80b1d3" stroke="transparent" points="2324.5,-10 2324.5,-30 2344.5,-30 2344.5,-10 2324.5,-10"/>
<text text-anchor="start" x="2348.28" y="-15.4" font-family="sans-serif" font-size="14.00"> &#160;Bootstrap</text>
<polygon fill="#fdb462" stroke="transparent" points="2421.5,-10 2421.5,-30 2441.5,-30 2441.5,-10 2421.5,-10"/>
<text text-anchor="start" x="2445.17" y="-15.4" font-family="sans-serif" font-size="14.00"> &#160;Providers</text>
<polygon fill="#fb8072" stroke="transparent" points="2517.5,-10 2517.5,-30 2537.5,-30 2537.5,-10 2517.5,-10"/>
<text text-anchor="start" x="2541.23" y="-15.4" font-family="sans-serif" font-size="14.00"> &#160;Exports</text>
<g id="clust1" class="cluster">
<title>cluster_AppModule</title>
<polygon fill="none" stroke="black" stroke-dasharray="1,5" points="2073,-200 2073,-420 3235,-420 3235,-200 2073,-200"/>
</g>
<g id="clust2" class="cluster">
<title>cluster_AppModule_declarations</title>
<polygon fill="none" stroke="black" points="2081,-208 2081,-260 2917,-260 2917,-208 2081,-208"/>
</g>
<g id="clust8" class="cluster">
<title>cluster_AppModule_imports</title>
<polygon fill="none" stroke="black" points="2925,-208 2925,-260 3227,-260 3227,-208 2925,-208"/>
</g>
<g id="clust9" class="cluster">
<title>cluster_AppModule_exports</title>
<polygon fill="none" stroke="black" points="2535,-360 2535,-412 2695,-412 2695,-360 2535,-360"/>
</g>
<g id="clust10" class="cluster">
<title>cluster_AppModule_bootstrap</title>
<polygon fill="none" stroke="black" points="2703,-360 2703,-412 2827,-412 2827,-360 2703,-360"/>
</g>
<g id="clust18" class="cluster">
<title>cluster_NgplCommonDirectivesModule</title>
<polygon fill="none" stroke="black" stroke-dasharray="1,5" points="8,-70 8,-268 2065,-268 2065,-70 8,-70"/>
</g>
<g id="clust19" class="cluster">
<title>cluster_NgplCommonDirectivesModule_declarations</title>
<polygon fill="none" stroke="black" points="43,-78 43,-130 2050,-130 2050,-78 43,-78"/>
</g>
<g id="clust31" class="cluster">
<title>cluster_NgplCommonDirectivesModule_exports</title>
<polygon fill="none" stroke="black" points="16,-208 16,-260 2057,-260 2057,-208 16,-208"/>
</g>
<g id="clust34" class="cluster">
<title>cluster_NgplCommonFilterModule</title>
<polygon fill="none" stroke="black" stroke-dasharray="1,5" points="3243,-70 3243,-268 3740,-268 3740,-70 3243,-70"/>
</g>
<g id="clust35" class="cluster">
<title>cluster_NgplCommonFilterModule_declarations</title>
<polygon fill="none" stroke="black" points="3253,-78 3253,-130 3724,-130 3724,-78 3253,-78"/>
</g>
<g id="clust40" class="cluster">
<title>cluster_NgplCommonFilterModule_exports</title>
<polygon fill="none" stroke="black" points="3251,-208 3251,-260 3732,-260 3732,-208 3251,-208"/>
</g>
<g id="clust43" class="cluster">
<title>cluster_NgplCommonModule</title>
<polygon fill="none" stroke="black" stroke-dasharray="1,5" points="3243,-276 3243,-344 4089,-344 4089,-276 3243,-276"/>
</g>
<g id="clust45" class="cluster">
<title>cluster_NgplCommonModule_imports</title>
<polygon fill="none" stroke="black" points="3877,-284 3877,-336 4081,-336 4081,-284 3877,-284"/>
</g>
<g id="clust46" class="cluster">
<title>cluster_NgplCommonModule_exports</title>
<polygon fill="none" stroke="black" points="3251,-284 3251,-336 3869,-336 3869,-284 3251,-284"/>
</g>
<g id="clust49" class="cluster">
<title>cluster_NgplCommonPipesModule</title>
<polygon fill="none" stroke="black" stroke-dasharray="1,5" points="3748,-70 3748,-268 4711,-268 4711,-70 3748,-70"/>
</g>
<g id="clust50" class="cluster">
<title>cluster_NgplCommonPipesModule_declarations</title>
<polygon fill="none" stroke="black" points="3769,-78 3769,-130 4690,-130 4690,-78 3769,-78"/>
</g>
<g id="clust59" class="cluster">
<title>cluster_NgplCommonPipesModule_exports</title>
<polygon fill="none" stroke="black" points="3756,-208 3756,-260 4703,-260 4703,-208 3756,-208"/>
</g>
<g id="clust62" class="cluster">
<title>cluster_NgplCommonSkeletonModule</title>
<polygon fill="none" stroke="black" stroke-dasharray="1,5" points="3790,-352 3790,-420 4166,-420 4166,-352 3790,-352"/>
</g>
<g id="clust63" class="cluster">
<title>cluster_NgplCommonSkeletonModule_declarations</title>
<polygon fill="none" stroke="black" points="3984,-360 3984,-412 4158,-412 4158,-360 3984,-360"/>
</g>
<g id="clust66" class="cluster">
<title>cluster_NgplCommonSkeletonModule_exports</title>
<polygon fill="none" stroke="black" points="3798,-360 3798,-412 3976,-412 3976,-360 3798,-360"/>
</g>
<!-- AppComponent -->
<g id="node1" class="node">
<title>AppComponent</title>
<polygon fill="#ffffb3" stroke="black" points="2908.94,-252 2803.06,-252 2803.06,-216 2908.94,-216 2908.94,-252"/>
<text text-anchor="middle" x="2856" y="-229.8" font-family="Times,serif" font-size="14.00">AppComponent</text>
</g>
<!-- AppModule -->
<g id="node6" class="node">
<title>AppModule</title>
<polygon fill="#8dd3c7" stroke="black" points="2731.66,-328 2728.66,-332 2707.66,-332 2704.66,-328 2648.34,-328 2648.34,-292 2731.66,-292 2731.66,-328"/>
<text text-anchor="middle" x="2690" y="-305.8" font-family="Times,serif" font-size="14.00">AppModule</text>
</g>
<!-- AppComponent&#45;&gt;AppModule -->
<g id="edge1" class="edge">
<title>AppComponent&#45;&gt;AppModule</title>
<path fill="none" stroke="black" d="M2811.38,-252.04C2811.38,-273.66 2811.38,-307 2811.38,-307 2811.38,-307 2741.77,-307 2741.77,-307"/>
<polygon fill="black" stroke="black" points="2741.77,-303.5 2731.77,-307 2741.77,-310.5 2741.77,-303.5"/>
</g>
<!-- NgplDirectivesTestComponent -->
<g id="node2" class="node">
<title>NgplDirectivesTestComponent</title>
<polygon fill="#ffffb3" stroke="black" points="2785.46,-252 2594.54,-252 2594.54,-216 2785.46,-216 2785.46,-252"/>
<text text-anchor="middle" x="2690" y="-229.8" font-family="Times,serif" font-size="14.00">NgplDirectivesTestComponent</text>
</g>
<!-- NgplDirectivesTestComponent&#45;&gt;AppModule -->
<g id="edge2" class="edge">
<title>NgplDirectivesTestComponent&#45;&gt;AppModule</title>
<path fill="none" stroke="black" d="M2690,-252.01C2690,-252.01 2690,-281.85 2690,-281.85"/>
<polygon fill="black" stroke="black" points="2686.5,-281.85 2690,-291.85 2693.5,-281.85 2686.5,-281.85"/>
</g>
<!-- NgplSelectTestComponent -->
<g id="node3" class="node">
<title>NgplSelectTestComponent</title>
<polygon fill="#ffffb3" stroke="black" points="2576.64,-252 2409.36,-252 2409.36,-216 2576.64,-216 2576.64,-252"/>
<text text-anchor="middle" x="2493" y="-229.8" font-family="Times,serif" font-size="14.00">NgplSelectTestComponent</text>
</g>
<!-- NgplSelectTestComponent&#45;&gt;AppModule -->
<g id="edge3" class="edge">
<title>NgplSelectTestComponent&#45;&gt;AppModule</title>
<path fill="none" stroke="black" d="M2560.12,-252.31C2560.12,-272.15 2560.12,-301 2560.12,-301 2560.12,-301 2638.19,-301 2638.19,-301"/>
<polygon fill="black" stroke="black" points="2638.19,-304.5 2648.19,-301 2638.19,-297.5 2638.19,-304.5"/>
</g>
<!-- SideNavComponent -->
<g id="node4" class="node">
<title>SideNavComponent</title>
<polygon fill="#ffffb3" stroke="black" points="2390.54,-252 2261.46,-252 2261.46,-216 2390.54,-216 2390.54,-252"/>
<text text-anchor="middle" x="2326" y="-229.8" font-family="Times,serif" font-size="14.00">SideNavComponent</text>
</g>
<!-- SideNavComponent&#45;&gt;AppModule -->
<g id="edge4" class="edge">
<title>SideNavComponent&#45;&gt;AppModule</title>
<path fill="none" stroke="black" d="M2326,-252.01C2326,-274.49 2326,-310 2326,-310 2326,-310 2638.24,-310 2638.24,-310"/>
<polygon fill="black" stroke="black" points="2638.24,-313.5 2648.24,-310 2638.24,-306.5 2638.24,-313.5"/>
</g>
<!-- SkeletonTestComponent -->
<g id="node5" class="node">
<title>SkeletonTestComponent</title>
<polygon fill="#ffffb3" stroke="black" points="2243.43,-252 2088.57,-252 2088.57,-216 2243.43,-216 2243.43,-252"/>
<text text-anchor="middle" x="2166" y="-229.8" font-family="Times,serif" font-size="14.00">SkeletonTestComponent</text>
</g>
<!-- SkeletonTestComponent&#45;&gt;AppModule -->
<g id="edge5" class="edge">
<title>SkeletonTestComponent&#45;&gt;AppModule</title>
<path fill="none" stroke="black" d="M2166,-252.03C2166,-276.98 2166,-319 2166,-319 2166,-319 2638,-319 2638,-319"/>
<polygon fill="black" stroke="black" points="2638,-322.5 2648,-319 2638,-315.5 2638,-322.5"/>
</g>
<!-- NgplCommonModule  -->
<g id="node9" class="node">
<title>NgplCommonModule </title>
<polygon fill="#fb8072" stroke="black" points="2686.66,-404 2543.34,-404 2543.34,-368 2686.66,-368 2686.66,-404"/>
<text text-anchor="middle" x="2615" y="-381.8" font-family="Times,serif" font-size="14.00">NgplCommonModule </text>
</g>
<!-- AppModule&#45;&gt;NgplCommonModule  -->
<g id="edge8" class="edge">
<title>AppModule&#45;&gt;NgplCommonModule </title>
<path fill="none" stroke="black" stroke-dasharray="5,2" d="M2667.38,-328.01C2667.38,-328.01 2667.38,-357.85 2667.38,-357.85"/>
<polygon fill="black" stroke="black" points="2663.88,-357.85 2667.38,-367.85 2670.88,-357.85 2663.88,-357.85"/>
</g>
<!-- AppComponent  -->
<g id="node10" class="node">
<title>AppComponent </title>
<polygon fill="#80b1d3" stroke="black" points="2819.44,-404 2710.56,-404 2710.56,-368 2819.44,-368 2819.44,-404"/>
<text text-anchor="middle" x="2765" y="-381.8" font-family="Times,serif" font-size="14.00">AppComponent </text>
</g>
<!-- AppModule&#45;&gt;AppComponent  -->
<g id="edge9" class="edge">
<title>AppModule&#45;&gt;AppComponent </title>
<path fill="none" stroke="black" stroke-dasharray="1,5" d="M2721.18,-328.01C2721.18,-328.01 2721.18,-357.85 2721.18,-357.85"/>
<polygon fill="black" stroke="black" points="2717.68,-357.85 2721.18,-367.85 2724.68,-357.85 2717.68,-357.85"/>
</g>
<!-- AppRoutingModule -->
<g id="node7" class="node">
<title>AppRoutingModule</title>
<polygon fill="#8dd3c7" stroke="black" points="3061.27,-252 3058.27,-256 3037.27,-256 3034.27,-252 2932.73,-252 2932.73,-216 3061.27,-216 3061.27,-252"/>
<text text-anchor="middle" x="2997" y="-229.8" font-family="Times,serif" font-size="14.00">AppRoutingModule</text>
</g>
<!-- AppRoutingModule&#45;&gt;AppModule -->
<g id="edge6" class="edge">
<title>AppRoutingModule&#45;&gt;AppModule</title>
<path fill="none" stroke="black" d="M2997,-252.15C2997,-275.76 2997,-314 2997,-314 2997,-314 2741.72,-314 2741.72,-314"/>
<polygon fill="black" stroke="black" points="2741.72,-310.5 2731.72,-314 2741.72,-317.5 2741.72,-310.5"/>
</g>
<!-- NgplCommonModule -->
<g id="node8" class="node">
<title>NgplCommonModule</title>
<polygon fill="#8dd3c7" stroke="black" points="3218.67,-252 3215.67,-256 3194.67,-256 3191.67,-252 3079.33,-252 3079.33,-216 3218.67,-216 3218.67,-252"/>
<text text-anchor="middle" x="3149" y="-229.8" font-family="Times,serif" font-size="14.00">NgplCommonModule</text>
</g>
<!-- NgplCommonModule&#45;&gt;AppModule -->
<g id="edge7" class="edge">
<title>NgplCommonModule&#45;&gt;AppModule</title>
<path fill="none" stroke="black" d="M3172.28,-252.03C3172.28,-277.51 3172.28,-321 3172.28,-321 3172.28,-321 2741.96,-321 2741.96,-321"/>
<polygon fill="black" stroke="black" points="2741.96,-317.5 2731.96,-321 2741.96,-324.5 2741.96,-317.5"/>
</g>
<!-- NgplCommonDirectivesModule  -->
<g id="node40" class="node">
<title>NgplCommonDirectivesModule </title>
<polygon fill="#fb8072" stroke="black" points="3861.19,-328 3660.81,-328 3660.81,-292 3861.19,-292 3861.19,-328"/>
<text text-anchor="middle" x="3761" y="-305.8" font-family="Times,serif" font-size="14.00">NgplCommonDirectivesModule </text>
</g>
<!-- NgplCommonModule&#45;&gt;NgplCommonDirectivesModule  -->
<g id="edge39" class="edge">
<title>NgplCommonModule&#45;&gt;NgplCommonDirectivesModule </title>
<path fill="none" stroke="black" stroke-dasharray="5,2" d="M3149,-252.11C3149,-261.9 3149,-272 3149,-272 3149,-272 3692.3,-272 3692.3,-272 3692.3,-272 3692.3,-281.89 3692.3,-281.89"/>
<polygon fill="black" stroke="black" points="3688.8,-281.89 3692.3,-291.89 3695.8,-281.89 3688.8,-281.89"/>
</g>
<!-- NgplCommonFilterModule  -->
<g id="node41" class="node">
<title>NgplCommonFilterModule </title>
<polygon fill="#fb8072" stroke="black" points="3643,-328 3469,-328 3469,-292 3643,-292 3643,-328"/>
<text text-anchor="middle" x="3556" y="-305.8" font-family="Times,serif" font-size="14.00">NgplCommonFilterModule </text>
</g>
<!-- NgplCommonModule&#45;&gt;NgplCommonFilterModule  -->
<g id="edge40" class="edge">
<title>NgplCommonModule&#45;&gt;NgplCommonFilterModule </title>
<path fill="none" stroke="black" stroke-dasharray="5,2" d="M3125.72,-252.15C3125.72,-265.74 3125.72,-282 3125.72,-282 3125.72,-282 3508.83,-282 3508.83,-282 3508.83,-282 3508.83,-282.98 3508.83,-282.98"/>
<polygon fill="black" stroke="black" points="3505.33,-281.79 3508.83,-291.79 3512.33,-281.79 3505.33,-281.79"/>
</g>
<!-- NgplCommonSkeletonModule  -->
<g id="node42" class="node">
<title>NgplCommonSkeletonModule </title>
<polygon fill="#fb8072" stroke="black" points="3451.16,-328 3258.84,-328 3258.84,-292 3451.16,-292 3451.16,-328"/>
<text text-anchor="middle" x="3355" y="-305.8" font-family="Times,serif" font-size="14.00">NgplCommonSkeletonModule </text>
</g>
<!-- NgplCommonModule&#45;&gt;NgplCommonSkeletonModule  -->
<g id="edge41" class="edge">
<title>NgplCommonModule&#45;&gt;NgplCommonSkeletonModule </title>
<path fill="none" stroke="black" stroke-dasharray="5,2" d="M3195.55,-252.03C3195.55,-271.58 3195.55,-300 3195.55,-300 3195.55,-300 3248.57,-300 3248.57,-300"/>
<polygon fill="black" stroke="black" points="3248.57,-303.5 3258.57,-300 3248.57,-296.5 3248.57,-303.5"/>
</g>
<!-- NgplControlErrorContainerDirective -->
<g id="node11" class="node">
<title>NgplControlErrorContainerDirective</title>
<polygon fill="#ffffb3" stroke="black" points="2041.6,-122 1818.4,-122 1818.4,-86 2041.6,-86 2041.6,-122"/>
<text text-anchor="middle" x="1930" y="-99.8" font-family="Times,serif" font-size="14.00">NgplControlErrorContainerDirective</text>
</g>
<!-- NgplCommonDirectivesModule -->
<g id="node21" class="node">
<title>NgplCommonDirectivesModule</title>
<polygon fill="#8dd3c7" stroke="black" points="1159.69,-187 1156.69,-191 1135.69,-191 1132.69,-187 962.31,-187 962.31,-151 1159.69,-151 1159.69,-187"/>
<text text-anchor="middle" x="1061" y="-164.8" font-family="Times,serif" font-size="14.00">NgplCommonDirectivesModule</text>
</g>
<!-- NgplControlErrorContainerDirective&#45;&gt;NgplCommonDirectivesModule -->
<g id="edge10" class="edge">
<title>NgplControlErrorContainerDirective&#45;&gt;NgplCommonDirectivesModule</title>
<path fill="none" stroke="black" d="M1968.35,-122.04C1968.35,-138.73 1968.35,-161 1968.35,-161 1968.35,-161 1169.83,-161 1169.83,-161"/>
<polygon fill="black" stroke="black" points="1169.83,-157.5 1159.83,-161 1169.83,-164.5 1169.83,-157.5"/>
</g>
<!-- NgplControlErrorsDirective -->
<g id="node12" class="node">
<title>NgplControlErrorsDirective</title>
<polygon fill="#ffffb3" stroke="black" points="1799.84,-122 1626.16,-122 1626.16,-86 1799.84,-86 1799.84,-122"/>
<text text-anchor="middle" x="1713" y="-99.8" font-family="Times,serif" font-size="14.00">NgplControlErrorsDirective</text>
</g>
<!-- NgplControlErrorsDirective&#45;&gt;NgplCommonDirectivesModule -->
<g id="edge11" class="edge">
<title>NgplControlErrorsDirective&#45;&gt;NgplCommonDirectivesModule</title>
<path fill="none" stroke="black" d="M1742.06,-122.28C1742.06,-137.95 1742.06,-158 1742.06,-158 1742.06,-158 1169.67,-158 1169.67,-158"/>
<polygon fill="black" stroke="black" points="1169.67,-154.5 1159.67,-158 1169.67,-161.5 1169.67,-154.5"/>
</g>
<!-- NgplDecimalNumberDirective -->
<g id="node13" class="node">
<title>NgplDecimalNumberDirective</title>
<polygon fill="#ffffb3" stroke="black" points="1607.87,-122 1418.13,-122 1418.13,-86 1607.87,-86 1607.87,-122"/>
<text text-anchor="middle" x="1513" y="-99.8" font-family="Times,serif" font-size="14.00">NgplDecimalNumberDirective</text>
</g>
<!-- NgplDecimalNumberDirective&#45;&gt;NgplCommonDirectivesModule -->
<g id="edge12" class="edge">
<title>NgplDecimalNumberDirective&#45;&gt;NgplCommonDirectivesModule</title>
<path fill="none" stroke="black" d="M1481.44,-122.12C1481.44,-136.78 1481.44,-155 1481.44,-155 1481.44,-155 1169.84,-155 1169.84,-155"/>
<polygon fill="black" stroke="black" points="1169.84,-151.5 1159.84,-155 1169.84,-158.5 1169.84,-151.5"/>
</g>
<!-- NgplDisableReactiveControlDirective -->
<g id="node14" class="node">
<title>NgplDisableReactiveControlDirective</title>
<polygon fill="#ffffb3" stroke="black" points="1400.1,-122 1169.9,-122 1169.9,-86 1400.1,-86 1400.1,-122"/>
<text text-anchor="middle" x="1285" y="-99.8" font-family="Times,serif" font-size="14.00">NgplDisableReactiveControlDirective</text>
</g>
<!-- NgplDisableReactiveControlDirective&#45;&gt;NgplCommonDirectivesModule -->
<g id="edge13" class="edge">
<title>NgplDisableReactiveControlDirective&#45;&gt;NgplCommonDirectivesModule</title>
<path fill="none" stroke="black" d="M1169.87,-104C1161.07,-104 1155.52,-104 1155.52,-104 1155.52,-104 1155.52,-140.89 1155.52,-140.89"/>
<polygon fill="black" stroke="black" points="1152.02,-140.89 1155.52,-150.89 1159.02,-140.89 1152.02,-140.89"/>
</g>
<!-- NgplFormSubmitDirective -->
<g id="node15" class="node">
<title>NgplFormSubmitDirective</title>
<polygon fill="#ffffb3" stroke="black" points="1151.37,-122 984.63,-122 984.63,-86 1151.37,-86 1151.37,-122"/>
<text text-anchor="middle" x="1068" y="-99.8" font-family="Times,serif" font-size="14.00">NgplFormSubmitDirective</text>
</g>
<!-- NgplFormSubmitDirective&#45;&gt;NgplCommonDirectivesModule -->
<g id="edge14" class="edge">
<title>NgplFormSubmitDirective&#45;&gt;NgplCommonDirectivesModule</title>
<path fill="none" stroke="black" d="M1068,-122.11C1068,-122.11 1068,-140.99 1068,-140.99"/>
<polygon fill="black" stroke="black" points="1064.5,-140.99 1068,-150.99 1071.5,-140.99 1064.5,-140.99"/>
</g>
<!-- NgplIntegerNumberDirective -->
<g id="node16" class="node">
<title>NgplIntegerNumberDirective</title>
<polygon fill="#ffffb3" stroke="black" points="966.59,-122 785.41,-122 785.41,-86 966.59,-86 966.59,-122"/>
<text text-anchor="middle" x="876" y="-99.8" font-family="Times,serif" font-size="14.00">NgplIntegerNumberDirective</text>
</g>
<!-- NgplIntegerNumberDirective&#45;&gt;NgplCommonDirectivesModule -->
<g id="edge15" class="edge">
<title>NgplIntegerNumberDirective&#45;&gt;NgplCommonDirectivesModule</title>
<path fill="none" stroke="black" d="M966.84,-104C972.32,-104 975.68,-104 975.68,-104 975.68,-104 975.68,-140.89 975.68,-140.89"/>
<polygon fill="black" stroke="black" points="972.18,-140.89 975.68,-150.89 979.18,-140.89 972.18,-140.89"/>
</g>
<!-- NgplMinWidthDirective -->
<g id="node17" class="node">
<title>NgplMinWidthDirective</title>
<polygon fill="#ffffb3" stroke="black" points="767.41,-122 612.59,-122 612.59,-86 767.41,-86 767.41,-122"/>
<text text-anchor="middle" x="690" y="-99.8" font-family="Times,serif" font-size="14.00">NgplMinWidthDirective</text>
</g>
<!-- NgplMinWidthDirective&#45;&gt;NgplCommonDirectivesModule -->
<g id="edge16" class="edge">
<title>NgplMinWidthDirective&#45;&gt;NgplCommonDirectivesModule</title>
<path fill="none" stroke="black" d="M760.58,-122.12C760.58,-136.78 760.58,-155 760.58,-155 760.58,-155 952.22,-155 952.22,-155"/>
<polygon fill="black" stroke="black" points="952.22,-158.5 962.22,-155 952.22,-151.5 952.22,-158.5"/>
</g>
<!-- NgplNumberFormatDirective -->
<g id="node18" class="node">
<title>NgplNumberFormatDirective</title>
<polygon fill="#ffffb3" stroke="black" points="595.39,-122 412.61,-122 412.61,-86 595.39,-86 595.39,-122"/>
<text text-anchor="middle" x="504" y="-99.8" font-family="Times,serif" font-size="14.00">NgplNumberFormatDirective</text>
</g>
<!-- NgplNumberFormatDirective&#45;&gt;NgplCommonDirectivesModule -->
<g id="edge17" class="edge">
<title>NgplNumberFormatDirective&#45;&gt;NgplCommonDirectivesModule</title>
<path fill="none" stroke="black" d="M586.57,-122.01C586.57,-138.05 586.57,-159 586.57,-159 586.57,-159 952.12,-159 952.12,-159"/>
<polygon fill="black" stroke="black" points="952.12,-162.5 962.12,-159 952.12,-155.5 952.12,-162.5"/>
</g>
<!-- NgplPreventKeyboardDirective -->
<g id="node19" class="node">
<title>NgplPreventKeyboardDirective</title>
<polygon fill="#ffffb3" stroke="black" points="395.04,-122 200.96,-122 200.96,-86 395.04,-86 395.04,-122"/>
<text text-anchor="middle" x="298" y="-99.8" font-family="Times,serif" font-size="14.00">NgplPreventKeyboardDirective</text>
</g>
<!-- NgplPreventKeyboardDirective&#45;&gt;NgplCommonDirectivesModule -->
<g id="edge18" class="edge">
<title>NgplPreventKeyboardDirective&#45;&gt;NgplCommonDirectivesModule</title>
<path fill="none" stroke="black" d="M382.91,-122.02C382.91,-139.37 382.91,-163 382.91,-163 382.91,-163 952.4,-163 952.4,-163"/>
<polygon fill="black" stroke="black" points="952.4,-166.5 962.4,-163 952.4,-159.5 952.4,-166.5"/>
</g>
<!-- NgplWidthDirective -->
<g id="node20" class="node">
<title>NgplWidthDirective</title>
<polygon fill="#ffffb3" stroke="black" points="182.58,-122 51.42,-122 51.42,-86 182.58,-86 182.58,-122"/>
<text text-anchor="middle" x="117" y="-99.8" font-family="Times,serif" font-size="14.00">NgplWidthDirective</text>
</g>
<!-- NgplWidthDirective&#45;&gt;NgplCommonDirectivesModule -->
<g id="edge19" class="edge">
<title>NgplWidthDirective&#45;&gt;NgplCommonDirectivesModule</title>
<path fill="none" stroke="black" d="M167.26,-122.22C167.26,-140.83 167.26,-167 167.26,-167 167.26,-167 952.37,-167 952.37,-167"/>
<polygon fill="black" stroke="black" points="952.37,-170.5 962.37,-167 952.37,-163.5 952.37,-170.5"/>
</g>
<!-- NgplCommonDirectivesModule&#45;&gt;NgplCommonModule -->
<g id="edge36" class="edge">
<title>NgplCommonDirectivesModule&#45;&gt;NgplCommonModule</title>
<path fill="none" stroke="black" d="M1159.89,-165C1571.27,-165 3125.72,-165 3125.72,-165 3125.72,-165 3125.72,-205.87 3125.72,-205.87"/>
<polygon fill="black" stroke="black" points="3122.22,-205.87 3125.72,-215.87 3129.22,-205.87 3122.22,-205.87"/>
</g>
<!-- NgplControlErrorContainerDirective  -->
<g id="node22" class="node">
<title>NgplControlErrorContainerDirective </title>
<polygon fill="#fb8072" stroke="black" points="2048.6,-252 1821.4,-252 1821.4,-216 2048.6,-216 2048.6,-252"/>
<text text-anchor="middle" x="1935" y="-229.8" font-family="Times,serif" font-size="14.00">NgplControlErrorContainerDirective </text>
</g>
<!-- NgplCommonDirectivesModule&#45;&gt;NgplControlErrorContainerDirective  -->
<g id="edge20" class="edge">
<title>NgplCommonDirectivesModule&#45;&gt;NgplControlErrorContainerDirective </title>
<path fill="none" stroke="black" stroke-dasharray="5,2" d="M1159.93,-168C1380.83,-168 1894.9,-168 1894.9,-168 1894.9,-168 1894.9,-205.97 1894.9,-205.97"/>
<polygon fill="black" stroke="black" points="1891.4,-205.97 1894.9,-215.97 1898.4,-205.97 1891.4,-205.97"/>
</g>
<!-- NgplControlErrorsDirective  -->
<g id="node23" class="node">
<title>NgplControlErrorsDirective </title>
<polygon fill="#fb8072" stroke="black" points="1803.84,-252 1626.16,-252 1626.16,-216 1803.84,-216 1803.84,-252"/>
<text text-anchor="middle" x="1715" y="-229.8" font-family="Times,serif" font-size="14.00">NgplControlErrorsDirective </text>
</g>
<!-- NgplCommonDirectivesModule&#45;&gt;NgplControlErrorsDirective  -->
<g id="edge21" class="edge">
<title>NgplCommonDirectivesModule&#45;&gt;NgplControlErrorsDirective </title>
<path fill="none" stroke="black" stroke-dasharray="5,2" d="M1159.75,-171C1335.47,-171 1684.19,-171 1684.19,-171 1684.19,-171 1684.19,-205.78 1684.19,-205.78"/>
<polygon fill="black" stroke="black" points="1680.69,-205.78 1684.19,-215.78 1687.69,-205.78 1680.69,-205.78"/>
</g>
<!-- NgplDecimalNumberDirective  -->
<g id="node24" class="node">
<title>NgplDecimalNumberDirective </title>
<polygon fill="#fb8072" stroke="black" points="1608.37,-252 1415.63,-252 1415.63,-216 1608.37,-216 1608.37,-252"/>
<text text-anchor="middle" x="1512" y="-229.8" font-family="Times,serif" font-size="14.00">NgplDecimalNumberDirective </text>
</g>
<!-- NgplCommonDirectivesModule&#45;&gt;NgplDecimalNumberDirective  -->
<g id="edge22" class="edge">
<title>NgplCommonDirectivesModule&#45;&gt;NgplDecimalNumberDirective </title>
<path fill="none" stroke="black" stroke-dasharray="5,2" d="M1159.73,-174C1301.16,-174 1544.56,-174 1544.56,-174 1544.56,-174 1544.56,-206 1544.56,-206"/>
<polygon fill="black" stroke="black" points="1541.06,-206 1544.56,-216 1548.06,-206 1541.06,-206"/>
</g>
<!-- NgplDisableReactiveControlDirective  -->
<g id="node25" class="node">
<title>NgplDisableReactiveControlDirective </title>
<polygon fill="#fb8072" stroke="black" points="1398.1,-252 1163.9,-252 1163.9,-216 1398.1,-216 1398.1,-252"/>
<text text-anchor="middle" x="1281" y="-229.8" font-family="Times,serif" font-size="14.00">NgplDisableReactiveControlDirective </text>
</g>
<!-- NgplCommonDirectivesModule&#45;&gt;NgplDisableReactiveControlDirective  -->
<g id="edge23" class="edge">
<title>NgplCommonDirectivesModule&#45;&gt;NgplDisableReactiveControlDirective </title>
<path fill="none" stroke="black" stroke-dasharray="5,2" d="M1152.89,-187.11C1152.89,-206.34 1152.89,-234 1152.89,-234 1152.89,-234 1153.98,-234 1153.98,-234"/>
<polygon fill="black" stroke="black" points="1153.81,-237.5 1163.81,-234 1153.81,-230.5 1153.81,-237.5"/>
</g>
<!-- NgplFormSubmitDirective  -->
<g id="node26" class="node">
<title>NgplFormSubmitDirective </title>
<polygon fill="#fb8072" stroke="black" points="1146.37,-252 975.63,-252 975.63,-216 1146.37,-216 1146.37,-252"/>
<text text-anchor="middle" x="1061" y="-229.8" font-family="Times,serif" font-size="14.00">NgplFormSubmitDirective </text>
</g>
<!-- NgplCommonDirectivesModule&#45;&gt;NgplFormSubmitDirective  -->
<g id="edge24" class="edge">
<title>NgplCommonDirectivesModule&#45;&gt;NgplFormSubmitDirective </title>
<path fill="none" stroke="black" stroke-dasharray="5,2" d="M1061,-187.11C1061,-187.11 1061,-205.99 1061,-205.99"/>
<polygon fill="black" stroke="black" points="1057.5,-205.99 1061,-215.99 1064.5,-205.99 1057.5,-205.99"/>
</g>
<!-- NgplIntegerNumberDirective  -->
<g id="node27" class="node">
<title>NgplIntegerNumberDirective </title>
<polygon fill="#fb8072" stroke="black" points="957.59,-252 772.41,-252 772.41,-216 957.59,-216 957.59,-252"/>
<text text-anchor="middle" x="865" y="-229.8" font-family="Times,serif" font-size="14.00">NgplIntegerNumberDirective </text>
</g>
<!-- NgplCommonDirectivesModule&#45;&gt;NgplIntegerNumberDirective  -->
<g id="edge25" class="edge">
<title>NgplCommonDirectivesModule&#45;&gt;NgplIntegerNumberDirective </title>
<path fill="none" stroke="black" stroke-dasharray="5,2" d="M969.11,-187.11C969.11,-206.34 969.11,-234 969.11,-234 969.11,-234 967.57,-234 967.57,-234"/>
<polygon fill="black" stroke="black" points="967.57,-230.5 957.57,-234 967.57,-237.5 967.57,-230.5"/>
</g>
<!-- NgplMinWidthDirective  -->
<g id="node28" class="node">
<title>NgplMinWidthDirective </title>
<polygon fill="#fb8072" stroke="black" points="753.91,-252 596.09,-252 596.09,-216 753.91,-216 753.91,-252"/>
<text text-anchor="middle" x="675" y="-229.8" font-family="Times,serif" font-size="14.00">NgplMinWidthDirective </text>
</g>
<!-- NgplCommonDirectivesModule&#45;&gt;NgplMinWidthDirective  -->
<g id="edge26" class="edge">
<title>NgplCommonDirectivesModule&#45;&gt;NgplMinWidthDirective </title>
<path fill="none" stroke="black" stroke-dasharray="5,2" d="M962.28,-183C850.39,-183 683.38,-183 683.38,-183 683.38,-183 683.38,-205.88 683.38,-205.88"/>
<polygon fill="black" stroke="black" points="679.88,-205.88 683.38,-215.88 686.88,-205.88 679.88,-205.88"/>
</g>
<!-- NgplNumberFormatDirective  -->
<g id="node29" class="node">
<title>NgplNumberFormatDirective </title>
<polygon fill="#fb8072" stroke="black" points="577.89,-252 392.11,-252 392.11,-216 577.89,-216 577.89,-252"/>
<text text-anchor="middle" x="485" y="-229.8" font-family="Times,serif" font-size="14.00">NgplNumberFormatDirective </text>
</g>
<!-- NgplCommonDirectivesModule&#45;&gt;NgplNumberFormatDirective  -->
<g id="edge27" class="edge">
<title>NgplCommonDirectivesModule&#45;&gt;NgplNumberFormatDirective </title>
<path fill="none" stroke="black" stroke-dasharray="5,2" d="M962.15,-179C800.01,-179 495.38,-179 495.38,-179 495.38,-179 495.38,-205.99 495.38,-205.99"/>
<polygon fill="black" stroke="black" points="491.88,-205.99 495.38,-215.99 498.88,-205.99 491.88,-205.99"/>
</g>
<!-- NgplPreventKeyboardDirective  -->
<g id="node30" class="node">
<title>NgplPreventKeyboardDirective </title>
<polygon fill="#fb8072" stroke="black" points="373.54,-252 176.46,-252 176.46,-216 373.54,-216 373.54,-252"/>
<text text-anchor="middle" x="275" y="-229.8" font-family="Times,serif" font-size="14.00">NgplPreventKeyboardDirective </text>
</g>
<!-- NgplCommonDirectivesModule&#45;&gt;NgplPreventKeyboardDirective  -->
<g id="edge28" class="edge">
<title>NgplCommonDirectivesModule&#45;&gt;NgplPreventKeyboardDirective </title>
<path fill="none" stroke="black" stroke-dasharray="5,2" d="M962.23,-175C753.67,-175 287.38,-175 287.38,-175 287.38,-175 287.38,-205.98 287.38,-205.98"/>
<polygon fill="black" stroke="black" points="283.88,-205.98 287.38,-215.98 290.88,-205.98 283.88,-205.98"/>
</g>
<!-- NgplWidthDirective  -->
<g id="node31" class="node">
<title>NgplWidthDirective </title>
<polygon fill="#fb8072" stroke="black" points="158.08,-252 23.92,-252 23.92,-216 158.08,-216 158.08,-252"/>
<text text-anchor="middle" x="91" y="-229.8" font-family="Times,serif" font-size="14.00">NgplWidthDirective </text>
</g>
<!-- NgplCommonDirectivesModule&#45;&gt;NgplWidthDirective  -->
<g id="edge29" class="edge">
<title>NgplCommonDirectivesModule&#45;&gt;NgplWidthDirective </title>
<path fill="none" stroke="black" stroke-dasharray="5,2" d="M962.28,-171C717.99,-171 104.88,-171 104.88,-171 104.88,-171 104.88,-205.78 104.88,-205.78"/>
<polygon fill="black" stroke="black" points="101.38,-205.78 104.88,-215.78 108.38,-205.78 101.38,-205.78"/>
</g>
<!-- NgplAutofocusDirective -->
<g id="node32" class="node">
<title>NgplAutofocusDirective</title>
<polygon fill="#ffffb3" stroke="black" points="3716.4,-122 3561.6,-122 3561.6,-86 3716.4,-86 3716.4,-122"/>
<text text-anchor="middle" x="3639" y="-99.8" font-family="Times,serif" font-size="14.00">NgplAutofocusDirective</text>
</g>
<!-- NgplCommonFilterModule -->
<g id="node35" class="node">
<title>NgplCommonFilterModule</title>
<polygon fill="#8dd3c7" stroke="black" points="3545.99,-187 3542.99,-191 3521.99,-191 3518.99,-187 3376.01,-187 3376.01,-151 3545.99,-151 3545.99,-187"/>
<text text-anchor="middle" x="3461" y="-164.8" font-family="Times,serif" font-size="14.00">NgplCommonFilterModule</text>
</g>
<!-- NgplAutofocusDirective&#45;&gt;NgplCommonFilterModule -->
<g id="edge30" class="edge">
<title>NgplAutofocusDirective&#45;&gt;NgplCommonFilterModule</title>
<path fill="none" stroke="black" d="M3666.15,-122.04C3666.15,-143.66 3666.15,-177 3666.15,-177 3666.15,-177 3556.22,-177 3556.22,-177"/>
<polygon fill="black" stroke="black" points="3556.22,-173.5 3546.22,-177 3556.22,-180.5 3556.22,-173.5"/>
</g>
<!-- NgplFilterConfigDirective -->
<g id="node33" class="node">
<title>NgplFilterConfigDirective</title>
<polygon fill="#ffffb3" stroke="black" points="3543.8,-122 3378.2,-122 3378.2,-86 3543.8,-86 3543.8,-122"/>
<text text-anchor="middle" x="3461" y="-99.8" font-family="Times,serif" font-size="14.00">NgplFilterConfigDirective</text>
</g>
<!-- NgplFilterConfigDirective&#45;&gt;NgplCommonFilterModule -->
<g id="edge31" class="edge">
<title>NgplFilterConfigDirective&#45;&gt;NgplCommonFilterModule</title>
<path fill="none" stroke="black" d="M3461,-122.11C3461,-122.11 3461,-140.99 3461,-140.99"/>
<polygon fill="black" stroke="black" points="3457.5,-140.99 3461,-150.99 3464.5,-140.99 3457.5,-140.99"/>
</g>
<!-- NgplFilterPipe -->
<g id="node34" class="node">
<title>NgplFilterPipe</title>
<polygon fill="#ffffb3" stroke="black" points="3360.71,-122 3261.29,-122 3261.29,-86 3360.71,-86 3360.71,-122"/>
<text text-anchor="middle" x="3311" y="-99.8" font-family="Times,serif" font-size="14.00">NgplFilterPipe</text>
</g>
<!-- NgplFilterPipe&#45;&gt;NgplCommonFilterModule -->
<g id="edge32" class="edge">
<title>NgplFilterPipe&#45;&gt;NgplCommonFilterModule</title>
<path fill="none" stroke="black" d="M3327.54,-122.29C3327.54,-144.21 3327.54,-178 3327.54,-178 3327.54,-178 3365.72,-178 3365.72,-178"/>
<polygon fill="black" stroke="black" points="3365.72,-181.5 3375.72,-178 3365.72,-174.5 3365.72,-181.5"/>
</g>
<!-- NgplCommonFilterModule&#45;&gt;NgplCommonModule -->
<g id="edge37" class="edge">
<title>NgplCommonFilterModule&#45;&gt;NgplCommonModule</title>
<path fill="none" stroke="black" d="M3375.94,-181C3290.77,-181 3172.28,-181 3172.28,-181 3172.28,-181 3172.28,-205.76 3172.28,-205.76"/>
<polygon fill="black" stroke="black" points="3168.78,-205.76 3172.28,-215.76 3175.78,-205.76 3168.78,-205.76"/>
</g>
<!-- NgplAutofocusDirective  -->
<g id="node36" class="node">
<title>NgplAutofocusDirective </title>
<polygon fill="#fb8072" stroke="black" points="3723.9,-252 3566.1,-252 3566.1,-216 3723.9,-216 3723.9,-252"/>
<text text-anchor="middle" x="3645" y="-229.8" font-family="Times,serif" font-size="14.00">NgplAutofocusDirective </text>
</g>
<!-- NgplCommonFilterModule&#45;&gt;NgplAutofocusDirective  -->
<g id="edge33" class="edge">
<title>NgplCommonFilterModule&#45;&gt;NgplAutofocusDirective </title>
<path fill="none" stroke="black" stroke-dasharray="5,2" d="M3546.26,-182C3582.3,-182 3616.1,-182 3616.1,-182 3616.1,-182 3616.1,-205.81 3616.1,-205.81"/>
<polygon fill="black" stroke="black" points="3612.6,-205.81 3616.1,-215.81 3619.6,-205.81 3612.6,-205.81"/>
</g>
<!-- NgplFilterConfigDirective  -->
<g id="node37" class="node">
<title>NgplFilterConfigDirective </title>
<polygon fill="#fb8072" stroke="black" points="3548.3,-252 3379.7,-252 3379.7,-216 3548.3,-216 3548.3,-252"/>
<text text-anchor="middle" x="3464" y="-229.8" font-family="Times,serif" font-size="14.00">NgplFilterConfigDirective </text>
</g>
<!-- NgplCommonFilterModule&#45;&gt;NgplFilterConfigDirective  -->
<g id="edge34" class="edge">
<title>NgplCommonFilterModule&#45;&gt;NgplFilterConfigDirective </title>
<path fill="none" stroke="black" stroke-dasharray="5,2" d="M3462.8,-187.11C3462.8,-187.11 3462.8,-205.99 3462.8,-205.99"/>
<polygon fill="black" stroke="black" points="3459.3,-205.99 3462.8,-215.99 3466.3,-205.99 3459.3,-205.99"/>
</g>
<!-- NgplFilterPipe  -->
<g id="node38" class="node">
<title>NgplFilterPipe </title>
<polygon fill="#fb8072" stroke="black" points="3361.21,-252 3258.79,-252 3258.79,-216 3361.21,-216 3361.21,-252"/>
<text text-anchor="middle" x="3310" y="-229.8" font-family="Times,serif" font-size="14.00">NgplFilterPipe </text>
</g>
<!-- NgplCommonFilterModule&#45;&gt;NgplFilterPipe  -->
<g id="edge35" class="edge">
<title>NgplCommonFilterModule&#45;&gt;NgplFilterPipe </title>
<path fill="none" stroke="black" stroke-dasharray="5,2" d="M3375.78,-184C3334.81,-184 3294.46,-184 3294.46,-184 3294.46,-184 3294.46,-205.95 3294.46,-205.95"/>
<polygon fill="black" stroke="black" points="3290.96,-205.95 3294.46,-215.95 3297.96,-205.95 3290.96,-205.95"/>
</g>
<!-- NgplCommonSkeletonModule -->
<g id="node39" class="node">
<title>NgplCommonSkeletonModule</title>
<polygon fill="#8dd3c7" stroke="black" points="4073.16,-328 4070.16,-332 4049.16,-332 4046.16,-328 3884.84,-328 3884.84,-292 4073.16,-292 4073.16,-328"/>
<text text-anchor="middle" x="3979" y="-305.8" font-family="Times,serif" font-size="14.00">NgplCommonSkeletonModule</text>
</g>
<!-- NgplCommonSkeletonModule&#45;&gt;NgplCommonModule -->
<g id="edge38" class="edge">
<title>NgplCommonSkeletonModule&#45;&gt;NgplCommonModule</title>
<path fill="none" stroke="black" d="M3946.21,-291.85C3946.21,-278.26 3946.21,-262 3946.21,-262 3946.21,-262 3102.45,-262 3102.45,-262 3102.45,-262 3102.45,-261.02 3102.45,-261.02"/>
<polygon fill="black" stroke="black" points="3105.95,-262.21 3102.45,-252.21 3098.95,-262.21 3105.95,-262.21"/>
</g>
<!-- NgplSkeletonComponent  -->
<g id="node59" class="node">
<title>NgplSkeletonComponent </title>
<polygon fill="#fb8072" stroke="black" points="3967.82,-404 3806.18,-404 3806.18,-368 3967.82,-368 3967.82,-404"/>
<text text-anchor="middle" x="3887" y="-381.8" font-family="Times,serif" font-size="14.00">NgplSkeletonComponent </text>
</g>
<!-- NgplCommonSkeletonModule&#45;&gt;NgplSkeletonComponent  -->
<g id="edge57" class="edge">
<title>NgplCommonSkeletonModule&#45;&gt;NgplSkeletonComponent </title>
<path fill="none" stroke="black" stroke-dasharray="5,2" d="M3926.29,-328.01C3926.29,-328.01 3926.29,-357.85 3926.29,-357.85"/>
<polygon fill="black" stroke="black" points="3922.79,-357.85 3926.29,-367.85 3929.79,-357.85 3922.79,-357.85"/>
</g>
<!-- NgplFillPipe -->
<g id="node43" class="node">
<title>NgplFillPipe</title>
<polygon fill="#ffffb3" stroke="black" points="4682.34,-122 4593.66,-122 4593.66,-86 4682.34,-86 4682.34,-122"/>
<text text-anchor="middle" x="4638" y="-99.8" font-family="Times,serif" font-size="14.00">NgplFillPipe</text>
</g>
<!-- NgplCommonPipesModule -->
<g id="node50" class="node">
<title>NgplCommonPipesModule</title>
<polygon fill="#8dd3c7" stroke="black" points="4289,-187 4286,-191 4265,-191 4262,-187 4119,-187 4119,-151 4289,-151 4289,-187"/>
<text text-anchor="middle" x="4204" y="-164.8" font-family="Times,serif" font-size="14.00">NgplCommonPipesModule</text>
</g>
<!-- NgplFillPipe&#45;&gt;NgplCommonPipesModule -->
<g id="edge42" class="edge">
<title>NgplFillPipe&#45;&gt;NgplCommonPipesModule</title>
<path fill="none" stroke="black" d="M4598.46,-122.27C4598.46,-140.56 4598.46,-166 4598.46,-166 4598.46,-166 4299.11,-166 4299.11,-166"/>
<polygon fill="black" stroke="black" points="4299.11,-162.5 4289.11,-166 4299.11,-169.5 4299.11,-162.5"/>
</g>
<!-- NgplGeneratePagesPipe -->
<g id="node44" class="node">
<title>NgplGeneratePagesPipe</title>
<polygon fill="#ffffb3" stroke="black" points="4576.06,-122 4423.94,-122 4423.94,-86 4576.06,-86 4576.06,-122"/>
<text text-anchor="middle" x="4500" y="-99.8" font-family="Times,serif" font-size="14.00">NgplGeneratePagesPipe</text>
</g>
<!-- NgplGeneratePagesPipe&#45;&gt;NgplCommonPipesModule -->
<g id="edge43" class="edge">
<title>NgplGeneratePagesPipe&#45;&gt;NgplCommonPipesModule</title>
<path fill="none" stroke="black" d="M4527.09,-122.01C4527.09,-138.05 4527.09,-159 4527.09,-159 4527.09,-159 4299.31,-159 4299.31,-159"/>
<polygon fill="black" stroke="black" points="4299.31,-155.5 4289.31,-159 4299.31,-162.5 4299.31,-155.5"/>
</g>
<!-- NgplHighlightPipe -->
<g id="node45" class="node">
<title>NgplHighlightPipe</title>
<polygon fill="#ffffb3" stroke="black" points="4406.05,-122 4283.95,-122 4283.95,-86 4406.05,-86 4406.05,-122"/>
<text text-anchor="middle" x="4345" y="-99.8" font-family="Times,serif" font-size="14.00">NgplHighlightPipe</text>
</g>
<!-- NgplHighlightPipe&#45;&gt;NgplCommonPipesModule -->
<g id="edge44" class="edge">
<title>NgplHighlightPipe&#45;&gt;NgplCommonPipesModule</title>
<path fill="none" stroke="black" d="M4283.71,-104C4278.11,-104 4274.5,-104 4274.5,-104 4274.5,-104 4274.5,-140.89 4274.5,-140.89"/>
<polygon fill="black" stroke="black" points="4271,-140.89 4274.5,-150.89 4278,-140.89 4271,-140.89"/>
</g>
<!-- NgplSafeHtmlPipe -->
<g id="node46" class="node">
<title>NgplSafeHtmlPipe</title>
<polygon fill="#ffffb3" stroke="black" points="4265.04,-122 4142.96,-122 4142.96,-86 4265.04,-86 4265.04,-122"/>
<text text-anchor="middle" x="4204" y="-99.8" font-family="Times,serif" font-size="14.00">NgplSafeHtmlPipe</text>
</g>
<!-- NgplSafeHtmlPipe&#45;&gt;NgplCommonPipesModule -->
<g id="edge45" class="edge">
<title>NgplSafeHtmlPipe&#45;&gt;NgplCommonPipesModule</title>
<path fill="none" stroke="black" d="M4204,-122.11C4204,-122.11 4204,-140.99 4204,-140.99"/>
<polygon fill="black" stroke="black" points="4200.5,-140.99 4204,-150.99 4207.5,-140.99 4200.5,-140.99"/>
</g>
<!-- NgplSafePipe -->
<g id="node47" class="node">
<title>NgplSafePipe</title>
<polygon fill="#ffffb3" stroke="black" points="4124.76,-122 4031.24,-122 4031.24,-86 4124.76,-86 4124.76,-122"/>
<text text-anchor="middle" x="4078" y="-99.8" font-family="Times,serif" font-size="14.00">NgplSafePipe</text>
</g>
<!-- NgplSafePipe&#45;&gt;NgplCommonPipesModule -->
<g id="edge46" class="edge">
<title>NgplSafePipe&#45;&gt;NgplCommonPipesModule</title>
<path fill="none" stroke="black" d="M4124.84,-104C4130.21,-104 4133.81,-104 4133.81,-104 4133.81,-104 4133.81,-140.89 4133.81,-140.89"/>
<polygon fill="black" stroke="black" points="4130.31,-140.89 4133.81,-150.89 4137.31,-140.89 4130.31,-140.89"/>
</g>
<!-- NgplSliceItemsPipe -->
<g id="node48" class="node">
<title>NgplSliceItemsPipe</title>
<polygon fill="#ffffb3" stroke="black" points="4012.98,-122 3885.02,-122 3885.02,-86 4012.98,-86 4012.98,-122"/>
<text text-anchor="middle" x="3949" y="-99.8" font-family="Times,serif" font-size="14.00">NgplSliceItemsPipe</text>
</g>
<!-- NgplSliceItemsPipe&#45;&gt;NgplCommonPipesModule -->
<g id="edge47" class="edge">
<title>NgplSliceItemsPipe&#45;&gt;NgplCommonPipesModule</title>
<path fill="none" stroke="black" d="M3966.83,-122.24C3966.83,-137.57 3966.83,-157 3966.83,-157 3966.83,-157 4108.71,-157 4108.71,-157"/>
<polygon fill="black" stroke="black" points="4108.71,-160.5 4118.71,-157 4108.71,-153.5 4108.71,-160.5"/>
</g>
<!-- TruncatePipe -->
<g id="node49" class="node">
<title>TruncatePipe</title>
<polygon fill="#ffffb3" stroke="black" points="3867.14,-122 3776.86,-122 3776.86,-86 3867.14,-86 3867.14,-122"/>
<text text-anchor="middle" x="3822" y="-99.8" font-family="Times,serif" font-size="14.00">TruncatePipe</text>
</g>
<!-- TruncatePipe&#45;&gt;NgplCommonPipesModule -->
<g id="edge48" class="edge">
<title>TruncatePipe&#45;&gt;NgplCommonPipesModule</title>
<path fill="none" stroke="black" d="M3830.94,-122.03C3830.94,-139.06 3830.94,-162 3830.94,-162 3830.94,-162 4108.88,-162 4108.88,-162"/>
<polygon fill="black" stroke="black" points="4108.88,-165.5 4118.88,-162 4108.88,-158.5 4108.88,-165.5"/>
</g>
<!-- NgplFillPipe  -->
<g id="node51" class="node">
<title>NgplFillPipe </title>
<polygon fill="#fb8072" stroke="black" points="4694.84,-252 4603.16,-252 4603.16,-216 4694.84,-216 4694.84,-252"/>
<text text-anchor="middle" x="4649" y="-229.8" font-family="Times,serif" font-size="14.00">NgplFillPipe </text>
</g>
<!-- NgplCommonPipesModule&#45;&gt;NgplFillPipe  -->
<g id="edge49" class="edge">
<title>NgplCommonPipesModule&#45;&gt;NgplFillPipe </title>
<path fill="none" stroke="black" stroke-dasharray="5,2" d="M4289.09,-173C4416.65,-173 4642.62,-173 4642.62,-173 4642.62,-173 4642.62,-205.7 4642.62,-205.7"/>
<polygon fill="black" stroke="black" points="4639.13,-205.7 4642.62,-215.7 4646.13,-205.7 4639.13,-205.7"/>
</g>
<!-- NgplGeneratePagesPipe  -->
<g id="node52" class="node">
<title>NgplGeneratePagesPipe </title>
<polygon fill="#fb8072" stroke="black" points="4584.56,-252 4429.44,-252 4429.44,-216 4584.56,-216 4584.56,-252"/>
<text text-anchor="middle" x="4507" y="-229.8" font-family="Times,serif" font-size="14.00">NgplGeneratePagesPipe </text>
</g>
<!-- NgplCommonPipesModule&#45;&gt;NgplGeneratePagesPipe  -->
<g id="edge50" class="edge">
<title>NgplCommonPipesModule&#45;&gt;NgplGeneratePagesPipe </title>
<path fill="none" stroke="black" stroke-dasharray="5,2" d="M4289.24,-180C4369.72,-180 4478.16,-180 4478.16,-180 4478.16,-180 4478.16,-205.72 4478.16,-205.72"/>
<polygon fill="black" stroke="black" points="4474.66,-205.72 4478.16,-215.72 4481.66,-205.72 4474.66,-205.72"/>
</g>
<!-- NgplHighlightPipe  -->
<g id="node53" class="node">
<title>NgplHighlightPipe </title>
<polygon fill="#fb8072" stroke="black" points="4411.05,-252 4284.95,-252 4284.95,-216 4411.05,-216 4411.05,-252"/>
<text text-anchor="middle" x="4348" y="-229.8" font-family="Times,serif" font-size="14.00">NgplHighlightPipe </text>
</g>
<!-- NgplCommonPipesModule&#45;&gt;NgplHighlightPipe  -->
<g id="edge51" class="edge">
<title>NgplCommonPipesModule&#45;&gt;NgplHighlightPipe </title>
<path fill="none" stroke="black" stroke-dasharray="5,2" d="M4276,-187.11C4276,-206.34 4276,-234 4276,-234 4276,-234 4276.88,-234 4276.88,-234"/>
<polygon fill="black" stroke="black" points="4274.82,-237.5 4284.82,-234 4274.82,-230.5 4274.82,-237.5"/>
</g>
<!-- NgplSafeHtmlPipe  -->
<g id="node54" class="node">
<title>NgplSafeHtmlPipe </title>
<polygon fill="#fb8072" stroke="black" points="4267.04,-252 4140.96,-252 4140.96,-216 4267.04,-216 4267.04,-252"/>
<text text-anchor="middle" x="4204" y="-229.8" font-family="Times,serif" font-size="14.00">NgplSafeHtmlPipe </text>
</g>
<!-- NgplCommonPipesModule&#45;&gt;NgplSafeHtmlPipe  -->
<g id="edge52" class="edge">
<title>NgplCommonPipesModule&#45;&gt;NgplSafeHtmlPipe </title>
<path fill="none" stroke="black" stroke-dasharray="5,2" d="M4204,-187.11C4204,-187.11 4204,-205.99 4204,-205.99"/>
<polygon fill="black" stroke="black" points="4200.5,-205.99 4204,-215.99 4207.5,-205.99 4200.5,-205.99"/>
</g>
<!-- NgplSafePipe  -->
<g id="node55" class="node">
<title>NgplSafePipe </title>
<polygon fill="#fb8072" stroke="black" points="4122.76,-252 4025.24,-252 4025.24,-216 4122.76,-216 4122.76,-252"/>
<text text-anchor="middle" x="4074" y="-229.8" font-family="Times,serif" font-size="14.00">NgplSafePipe </text>
</g>
<!-- NgplCommonPipesModule&#45;&gt;NgplSafePipe  -->
<g id="edge53" class="edge">
<title>NgplCommonPipesModule&#45;&gt;NgplSafePipe </title>
<path fill="none" stroke="black" stroke-dasharray="5,2" d="M4131.81,-187.11C4131.81,-206.34 4131.81,-234 4131.81,-234 4131.81,-234 4130.9,-234 4130.9,-234"/>
<polygon fill="black" stroke="black" points="4132.77,-230.5 4122.77,-234 4132.77,-237.5 4132.77,-230.5"/>
</g>
<!-- NgplSliceItemsPipe  -->
<g id="node56" class="node">
<title>NgplSliceItemsPipe </title>
<polygon fill="#fb8072" stroke="black" points="4007.98,-252 3876.02,-252 3876.02,-216 4007.98,-216 4007.98,-252"/>
<text text-anchor="middle" x="3942" y="-229.8" font-family="Times,serif" font-size="14.00">NgplSliceItemsPipe </text>
</g>
<!-- NgplCommonPipesModule&#45;&gt;NgplSliceItemsPipe  -->
<g id="edge54" class="edge">
<title>NgplCommonPipesModule&#45;&gt;NgplSliceItemsPipe </title>
<path fill="none" stroke="black" stroke-dasharray="5,2" d="M4118.68,-172C4036.93,-172 3925.92,-172 3925.92,-172 3925.92,-172 3925.92,-205.73 3925.92,-205.73"/>
<polygon fill="black" stroke="black" points="3922.42,-205.73 3925.92,-215.73 3929.42,-205.73 3922.42,-205.73"/>
</g>
<!-- TruncatePipe  -->
<g id="node57" class="node">
<title>TruncatePipe </title>
<polygon fill="#fb8072" stroke="black" points="3858.14,-252 3763.86,-252 3763.86,-216 3858.14,-216 3858.14,-252"/>
<text text-anchor="middle" x="3811" y="-229.8" font-family="Times,serif" font-size="14.00">TruncatePipe </text>
</g>
<!-- NgplCommonPipesModule&#45;&gt;TruncatePipe  -->
<g id="edge55" class="edge">
<title>NgplCommonPipesModule&#45;&gt;TruncatePipe </title>
<path fill="none" stroke="black" stroke-dasharray="5,2" d="M4118.64,-167C4001.11,-167 3803.81,-167 3803.81,-167 3803.81,-167 3803.81,-205.69 3803.81,-205.69"/>
<polygon fill="black" stroke="black" points="3800.31,-205.69 3803.81,-215.69 3807.31,-205.69 3800.31,-205.69"/>
</g>
<!-- NgplSkeletonComponent -->
<g id="node58" class="node">
<title>NgplSkeletonComponent</title>
<polygon fill="#ffffb3" stroke="black" points="4150.32,-404 3991.68,-404 3991.68,-368 4150.32,-368 4150.32,-404"/>
<text text-anchor="middle" x="4071" y="-381.8" font-family="Times,serif" font-size="14.00">NgplSkeletonComponent</text>
</g>
<!-- NgplSkeletonComponent&#45;&gt;NgplCommonSkeletonModule -->
<g id="edge56" class="edge">
<title>NgplSkeletonComponent&#45;&gt;NgplCommonSkeletonModule</title>
<path fill="none" stroke="black" d="M4032.58,-367.99C4032.58,-367.99 4032.58,-338.15 4032.58,-338.15"/>
<polygon fill="black" stroke="black" points="4036.08,-338.15 4032.58,-328.15 4029.08,-338.15 4036.08,-338.15"/>
</g>
</g>
</svg>
