<?xml version="1.0" encoding="UTF-8" standalone="no"?>
<!DOCTYPE svg PUBLIC "-//W3C//DTD SVG 1.1//EN"
 "http://www.w3.org/Graphics/SVG/1.1/DTD/svg11.dtd">
<!-- Generated by graphviz version 2.47.0 (20210316.0004)
 -->
<!-- Title: dependencies Pages: 1 -->
<svg width="1186pt" height="284pt"
 viewBox="0.00 0.00 1186.00 284.00" xmlns="http://www.w3.org/2000/svg" xmlns:xlink="http://www.w3.org/1999/xlink">
<g id="graph0" class="graph" transform="scale(1 1) rotate(0) translate(4 280)">
<title>dependencies</title>
<polygon fill="white" stroke="transparent" points="-4,4 -4,-280 1182,-280 1182,4 -4,4"/>
<text text-anchor="start" x="568.01" y="-42.4" font-family="sans-serif" font-weight="bold" font-size="14.00">Legend</text>
<polygon fill="#ffffb3" stroke="transparent" points="355,-10 355,-30 375,-30 375,-10 355,-10"/>
<text text-anchor="start" x="378.63" y="-15.4" font-family="sans-serif" font-size="14.00"> &#160;Declarations</text>
<polygon fill="#8dd3c7" stroke="transparent" points="468,-10 468,-30 488,-30 488,-10 468,-10"/>
<text text-anchor="start" x="491.73" y="-15.4" font-family="sans-serif" font-size="14.00"> &#160;Module</text>
<polygon fill="#80b1d3" stroke="transparent" points="554,-10 554,-30 574,-30 574,-10 554,-10"/>
<text text-anchor="start" x="577.78" y="-15.4" font-family="sans-serif" font-size="14.00"> &#160;Bootstrap</text>
<polygon fill="#fdb462" stroke="transparent" points="651,-10 651,-30 671,-30 671,-10 651,-10"/>
<text text-anchor="start" x="674.67" y="-15.4" font-family="sans-serif" font-size="14.00"> &#160;Providers</text>
<polygon fill="#fb8072" stroke="transparent" points="747,-10 747,-30 767,-30 767,-10 747,-10"/>
<text text-anchor="start" x="770.73" y="-15.4" font-family="sans-serif" font-size="14.00"> &#160;Exports</text>
<g id="clust1" class="cluster">
<title>cluster_AppModule</title>
<polygon fill="none" stroke="black" stroke-dasharray="1,5" points="8,-70 8,-268 1170,-268 1170,-70 8,-70"/>
</g>
<g id="clust2" class="cluster">
<title>cluster_AppModule_declarations</title>
<polygon fill="none" stroke="black" points="326,-78 326,-130 1162,-130 1162,-78 326,-78"/>
</g>
<g id="clust9" class="cluster">
<title>cluster_AppModule_exports</title>
<polygon fill="none" stroke="black" points="416,-208 416,-260 576,-260 576,-208 416,-208"/>
</g>
<g id="clust10" class="cluster">
<title>cluster_AppModule_bootstrap</title>
<polygon fill="none" stroke="black" points="584,-208 584,-260 708,-260 708,-208 584,-208"/>
</g>
<g id="clust8" class="cluster">
<title>cluster_AppModule_imports</title>
<polygon fill="none" stroke="black" points="16,-78 16,-130 318,-130 318,-78 16,-78"/>
</g>
<!-- AppComponent -->
<g id="node1" class="node">
<title>AppComponent</title>
<polygon fill="#ffffb3" stroke="black" points="1153.94,-122 1048.06,-122 1048.06,-86 1153.94,-86 1153.94,-122"/>
<text text-anchor="middle" x="1101" y="-99.8" font-family="Times,serif" font-size="14.00">AppComponent</text>
</g>
<!-- AppModule -->
<g id="node6" class="node">
<title>AppModule</title>
<polygon fill="#8dd3c7" stroke="black" points="612.66,-187 609.66,-191 588.66,-191 585.66,-187 529.34,-187 529.34,-151 612.66,-151 612.66,-187"/>
<text text-anchor="middle" x="571" y="-164.8" font-family="Times,serif" font-size="14.00">AppModule</text>
</g>
<!-- AppComponent&#45;&gt;AppModule -->
<g id="edge1" class="edge">
<title>AppComponent&#45;&gt;AppModule</title>
<path fill="none" stroke="black" d="M1101,-122.29C1101,-144.21 1101,-178 1101,-178 1101,-178 623.03,-178 623.03,-178"/>
<polygon fill="black" stroke="black" points="623.03,-174.5 613.03,-178 623.03,-181.5 623.03,-174.5"/>
</g>
<!-- NgplDirectivesTestComponent -->
<g id="node2" class="node">
<title>NgplDirectivesTestComponent</title>
<polygon fill="#ffffb3" stroke="black" points="1030.46,-122 839.54,-122 839.54,-86 1030.46,-86 1030.46,-122"/>
<text text-anchor="middle" x="935" y="-99.8" font-family="Times,serif" font-size="14.00">NgplDirectivesTestComponent</text>
</g>
<!-- NgplDirectivesTestComponent&#45;&gt;AppModule -->
<g id="edge2" class="edge">
<title>NgplDirectivesTestComponent&#45;&gt;AppModule</title>
<path fill="none" stroke="black" d="M935,-122.11C935,-141.34 935,-169 935,-169 935,-169 622.76,-169 622.76,-169"/>
<polygon fill="black" stroke="black" points="622.76,-165.5 612.76,-169 622.76,-172.5 622.76,-165.5"/>
</g>
<!-- NgplSelectTestComponent -->
<g id="node3" class="node">
<title>NgplSelectTestComponent</title>
<polygon fill="#ffffb3" stroke="black" points="821.64,-122 654.36,-122 654.36,-86 821.64,-86 821.64,-122"/>
<text text-anchor="middle" x="738" y="-99.8" font-family="Times,serif" font-size="14.00">NgplSelectTestComponent</text>
</g>
<!-- NgplSelectTestComponent&#45;&gt;AppModule -->
<g id="edge3" class="edge">
<title>NgplSelectTestComponent&#45;&gt;AppModule</title>
<path fill="none" stroke="black" d="M677.32,-122.03C677.32,-138.4 677.32,-160 677.32,-160 677.32,-160 622.72,-160 622.72,-160"/>
<polygon fill="black" stroke="black" points="622.72,-156.5 612.72,-160 622.72,-163.5 622.72,-156.5"/>
</g>
<!-- SideNavComponent -->
<g id="node4" class="node">
<title>SideNavComponent</title>
<polygon fill="#ffffb3" stroke="black" points="635.54,-122 506.46,-122 506.46,-86 635.54,-86 635.54,-122"/>
<text text-anchor="middle" x="571" y="-99.8" font-family="Times,serif" font-size="14.00">SideNavComponent</text>
</g>
<!-- SideNavComponent&#45;&gt;AppModule -->
<g id="edge4" class="edge">
<title>SideNavComponent&#45;&gt;AppModule</title>
<path fill="none" stroke="black" d="M571,-122.11C571,-122.11 571,-140.99 571,-140.99"/>
<polygon fill="black" stroke="black" points="567.5,-140.99 571,-150.99 574.5,-140.99 567.5,-140.99"/>
</g>
<!-- SkeletonTestComponent -->
<g id="node5" class="node">
<title>SkeletonTestComponent</title>
<polygon fill="#ffffb3" stroke="black" points="488.43,-122 333.57,-122 333.57,-86 488.43,-86 488.43,-122"/>
<text text-anchor="middle" x="411" y="-99.8" font-family="Times,serif" font-size="14.00">SkeletonTestComponent</text>
</g>
<!-- SkeletonTestComponent&#45;&gt;AppModule -->
<g id="edge5" class="edge">
<title>SkeletonTestComponent&#45;&gt;AppModule</title>
<path fill="none" stroke="black" d="M456.32,-122.03C456.32,-138.4 456.32,-160 456.32,-160 456.32,-160 519.27,-160 519.27,-160"/>
<polygon fill="black" stroke="black" points="519.27,-163.5 529.27,-160 519.27,-156.5 519.27,-163.5"/>
</g>
<!-- NgplCommonModule  -->
<g id="node9" class="node">
<title>NgplCommonModule </title>
<polygon fill="#fb8072" stroke="black" points="567.66,-252 424.34,-252 424.34,-216 567.66,-216 567.66,-252"/>
<text text-anchor="middle" x="496" y="-229.8" font-family="Times,serif" font-size="14.00">NgplCommonModule </text>
</g>
<!-- AppModule&#45;&gt;NgplCommonModule  -->
<g id="edge8" class="edge">
<title>AppModule&#45;&gt;NgplCommonModule </title>
<path fill="none" stroke="black" stroke-dasharray="5,2" d="M548.38,-187.11C548.38,-187.11 548.38,-205.99 548.38,-205.99"/>
<polygon fill="black" stroke="black" points="544.88,-205.99 548.38,-215.99 551.88,-205.99 544.88,-205.99"/>
</g>
<!-- AppComponent  -->
<g id="node10" class="node">
<title>AppComponent </title>
<polygon fill="#80b1d3" stroke="black" points="700.44,-252 591.56,-252 591.56,-216 700.44,-216 700.44,-252"/>
<text text-anchor="middle" x="646" y="-229.8" font-family="Times,serif" font-size="14.00">AppComponent </text>
</g>
<!-- AppModule&#45;&gt;AppComponent  -->
<g id="edge9" class="edge">
<title>AppModule&#45;&gt;AppComponent </title>
<path fill="none" stroke="black" stroke-dasharray="1,5" d="M602.18,-187.11C602.18,-187.11 602.18,-205.99 602.18,-205.99"/>
<polygon fill="black" stroke="black" points="598.68,-205.99 602.18,-215.99 605.68,-205.99 598.68,-205.99"/>
</g>
<!-- AppRoutingModule -->
<g id="node7" class="node">
<title>AppRoutingModule</title>
<polygon fill="#8dd3c7" stroke="black" points="310.27,-122 307.27,-126 286.27,-126 283.27,-122 181.73,-122 181.73,-86 310.27,-86 310.27,-122"/>
<text text-anchor="middle" x="246" y="-99.8" font-family="Times,serif" font-size="14.00">AppRoutingModule</text>
</g>
<!-- AppRoutingModule&#45;&gt;AppModule -->
<g id="edge6" class="edge">
<title>AppRoutingModule&#45;&gt;AppModule</title>
<path fill="none" stroke="black" d="M246,-122.11C246,-141.34 246,-169 246,-169 246,-169 519.18,-169 519.18,-169"/>
<polygon fill="black" stroke="black" points="519.18,-172.5 529.18,-169 519.18,-165.5 519.18,-172.5"/>
</g>
<!-- NgplCommonModule -->
<g id="node8" class="node">
<title>NgplCommonModule</title>
<polygon fill="#8dd3c7" stroke="black" points="163.67,-122 160.67,-126 139.67,-126 136.67,-122 24.33,-122 24.33,-86 163.67,-86 163.67,-122"/>
<text text-anchor="middle" x="94" y="-99.8" font-family="Times,serif" font-size="14.00">NgplCommonModule</text>
</g>
<!-- NgplCommonModule&#45;&gt;AppModule -->
<g id="edge7" class="edge">
<title>NgplCommonModule&#45;&gt;AppModule</title>
<path fill="none" stroke="black" d="M94,-122.29C94,-144.21 94,-178 94,-178 94,-178 519.09,-178 519.09,-178"/>
<polygon fill="black" stroke="black" points="519.09,-181.5 529.09,-178 519.09,-174.5 519.09,-181.5"/>
</g>
</g>
</svg>
