<?xml version="1.0" encoding="UTF-8" standalone="no"?>
<!DOCTYPE svg PUBLIC "-//W3C//DTD SVG 1.1//EN"
 "http://www.w3.org/Graphics/SVG/1.1/DTD/svg11.dtd">
<!-- Generated by graphviz version 2.47.0 (20210316.0004)
 -->
<!-- Title: dependencies Pages: 1 -->
<svg width="521pt" height="284pt"
 viewBox="0.00 0.00 521.00 284.00" xmlns="http://www.w3.org/2000/svg" xmlns:xlink="http://www.w3.org/1999/xlink">
<g id="graph0" class="graph" transform="scale(1 1) rotate(0) translate(4 280)">
<title>dependencies</title>
<polygon fill="white" stroke="transparent" points="-4,4 -4,-280 517,-280 517,4 -4,4"/>
<text text-anchor="start" x="235.51" y="-42.4" font-family="sans-serif" font-weight="bold" font-size="14.00">Legend</text>
<polygon fill="#ffffb3" stroke="transparent" points="22.5,-10 22.5,-30 42.5,-30 42.5,-10 22.5,-10"/>
<text text-anchor="start" x="46.13" y="-15.4" font-family="sans-serif" font-size="14.00"> &#160;Declarations</text>
<polygon fill="#8dd3c7" stroke="transparent" points="135.5,-10 135.5,-30 155.5,-30 155.5,-10 135.5,-10"/>
<text text-anchor="start" x="159.23" y="-15.4" font-family="sans-serif" font-size="14.00"> &#160;Module</text>
<polygon fill="#80b1d3" stroke="transparent" points="221.5,-10 221.5,-30 241.5,-30 241.5,-10 221.5,-10"/>
<text text-anchor="start" x="245.28" y="-15.4" font-family="sans-serif" font-size="14.00"> &#160;Bootstrap</text>
<polygon fill="#fdb462" stroke="transparent" points="318.5,-10 318.5,-30 338.5,-30 338.5,-10 318.5,-10"/>
<text text-anchor="start" x="342.17" y="-15.4" font-family="sans-serif" font-size="14.00"> &#160;Providers</text>
<polygon fill="#fb8072" stroke="transparent" points="414.5,-10 414.5,-30 434.5,-30 434.5,-10 414.5,-10"/>
<text text-anchor="start" x="438.23" y="-15.4" font-family="sans-serif" font-size="14.00"> &#160;Exports</text>
<g id="clust1" class="cluster">
<title>cluster_NgplCommonFilterModule</title>
<polygon fill="none" stroke="black" stroke-dasharray="1,5" points="8,-70 8,-268 505,-268 505,-70 8,-70"/>
</g>
<g id="clust2" class="cluster">
<title>cluster_NgplCommonFilterModule_declarations</title>
<polygon fill="none" stroke="black" points="21,-78 21,-130 492,-130 492,-78 21,-78"/>
</g>
<g id="clust7" class="cluster">
<title>cluster_NgplCommonFilterModule_exports</title>
<polygon fill="none" stroke="black" points="16,-208 16,-260 497,-260 497,-208 16,-208"/>
</g>
<!-- NgplAutofocusDirective -->
<g id="node1" class="node">
<title>NgplAutofocusDirective</title>
<polygon fill="#ffffb3" stroke="black" points="484.4,-122 329.6,-122 329.6,-86 484.4,-86 484.4,-122"/>
<text text-anchor="middle" x="407" y="-99.8" font-family="Times,serif" font-size="14.00">NgplAutofocusDirective</text>
</g>
<!-- NgplCommonFilterModule -->
<g id="node4" class="node">
<title>NgplCommonFilterModule</title>
<polygon fill="#8dd3c7" stroke="black" points="313.99,-187 310.99,-191 289.99,-191 286.99,-187 144.01,-187 144.01,-151 313.99,-151 313.99,-187"/>
<text text-anchor="middle" x="229" y="-164.8" font-family="Times,serif" font-size="14.00">NgplCommonFilterModule</text>
</g>
<!-- NgplAutofocusDirective&#45;&gt;NgplCommonFilterModule -->
<g id="edge1" class="edge">
<title>NgplAutofocusDirective&#45;&gt;NgplCommonFilterModule</title>
<path fill="none" stroke="black" d="M433.15,-122.02C433.15,-139.37 433.15,-163 433.15,-163 433.15,-163 324.1,-163 324.1,-163"/>
<polygon fill="black" stroke="black" points="324.1,-159.5 314.1,-163 324.1,-166.5 324.1,-159.5"/>
</g>
<!-- NgplFilterConfigDirective -->
<g id="node2" class="node">
<title>NgplFilterConfigDirective</title>
<polygon fill="#ffffb3" stroke="black" points="311.8,-122 146.2,-122 146.2,-86 311.8,-86 311.8,-122"/>
<text text-anchor="middle" x="229" y="-99.8" font-family="Times,serif" font-size="14.00">NgplFilterConfigDirective</text>
</g>
<!-- NgplFilterConfigDirective&#45;&gt;NgplCommonFilterModule -->
<g id="edge2" class="edge">
<title>NgplFilterConfigDirective&#45;&gt;NgplCommonFilterModule</title>
<path fill="none" stroke="black" d="M229,-122.11C229,-122.11 229,-140.99 229,-140.99"/>
<polygon fill="black" stroke="black" points="225.5,-140.99 229,-150.99 232.5,-140.99 225.5,-140.99"/>
</g>
<!-- NgplFilterPipe -->
<g id="node3" class="node">
<title>NgplFilterPipe</title>
<polygon fill="#ffffb3" stroke="black" points="128.71,-122 29.29,-122 29.29,-86 128.71,-86 128.71,-122"/>
<text text-anchor="middle" x="79" y="-99.8" font-family="Times,serif" font-size="14.00">NgplFilterPipe</text>
</g>
<!-- NgplFilterPipe&#45;&gt;NgplCommonFilterModule -->
<g id="edge3" class="edge">
<title>NgplFilterPipe&#45;&gt;NgplCommonFilterModule</title>
<path fill="none" stroke="black" d="M94.04,-122.02C94.04,-139.37 94.04,-163 94.04,-163 94.04,-163 133.91,-163 133.91,-163"/>
<polygon fill="black" stroke="black" points="133.91,-166.5 143.91,-163 133.91,-159.5 133.91,-166.5"/>
</g>
<!-- NgplAutofocusDirective  -->
<g id="node5" class="node">
<title>NgplAutofocusDirective </title>
<polygon fill="#fb8072" stroke="black" points="488.9,-252 331.1,-252 331.1,-216 488.9,-216 488.9,-252"/>
<text text-anchor="middle" x="410" y="-229.8" font-family="Times,serif" font-size="14.00">NgplAutofocusDirective </text>
</g>
<!-- NgplCommonFilterModule&#45;&gt;NgplAutofocusDirective  -->
<g id="edge4" class="edge">
<title>NgplCommonFilterModule&#45;&gt;NgplAutofocusDirective </title>
<path fill="none" stroke="black" stroke-dasharray="5,2" d="M314.06,-175C349.3,-175 382.1,-175 382.1,-175 382.1,-175 382.1,-205.98 382.1,-205.98"/>
<polygon fill="black" stroke="black" points="378.6,-205.98 382.1,-215.98 385.6,-205.98 378.6,-205.98"/>
</g>
<!-- NgplFilterConfigDirective  -->
<g id="node6" class="node">
<title>NgplFilterConfigDirective </title>
<polygon fill="#fb8072" stroke="black" points="313.3,-252 144.7,-252 144.7,-216 313.3,-216 313.3,-252"/>
<text text-anchor="middle" x="229" y="-229.8" font-family="Times,serif" font-size="14.00">NgplFilterConfigDirective </text>
</g>
<!-- NgplCommonFilterModule&#45;&gt;NgplFilterConfigDirective  -->
<g id="edge5" class="edge">
<title>NgplCommonFilterModule&#45;&gt;NgplFilterConfigDirective </title>
<path fill="none" stroke="black" stroke-dasharray="5,2" d="M229,-187.11C229,-187.11 229,-205.99 229,-205.99"/>
<polygon fill="black" stroke="black" points="225.5,-205.99 229,-215.99 232.5,-205.99 225.5,-205.99"/>
</g>
<!-- NgplFilterPipe  -->
<g id="node7" class="node">
<title>NgplFilterPipe </title>
<polygon fill="#fb8072" stroke="black" points="126.21,-252 23.79,-252 23.79,-216 126.21,-216 126.21,-252"/>
<text text-anchor="middle" x="75" y="-229.8" font-family="Times,serif" font-size="14.00">NgplFilterPipe </text>
</g>
<!-- NgplCommonFilterModule&#45;&gt;NgplFilterPipe  -->
<g id="edge6" class="edge">
<title>NgplCommonFilterModule&#45;&gt;NgplFilterPipe </title>
<path fill="none" stroke="black" stroke-dasharray="5,2" d="M143.89,-175C102.56,-175 61.71,-175 61.71,-175 61.71,-175 61.71,-205.98 61.71,-205.98"/>
<polygon fill="black" stroke="black" points="58.21,-205.98 61.71,-215.98 65.21,-205.98 58.21,-205.98"/>
</g>
</g>
</svg>
